<svg width="1000" height="1000" xmlns="http://www.w3.org/2000/svg">

 <g>
  <title>background</title>
  <rect fill="none" id="canvas_background" height="402" width="582" y="-1" x="-1"/>
 </g>
 <g>
  <title>Layer 1</title>
  <path fill="#9a7e6f" id="svg_1" d="m773.44,608.33a120.84,120.84 0 0 0 -69.21,-37.69c-4.85,-0.8 -9.87,-1.3 -14.66,-0.15c-9,2.14 -15.81,9.91 -18.92,18.59s-3,18.18 -2,27.35a152.9,152.9 0 0 0 23.35,65.91c1.87,2.9 3.92,5.83 6.86,7.63c3.72,2.27 8.31,2.44 12.67,2.31c15.67,-0.45 31.52,-4 44.79,-12.39s23.74,-21.77 26.52,-37.2"/>
  <path id="svg_2" d="m773.91,607.85a121.28,121.28 0 0 0 -54.48,-34.76a114.81,114.81 0 0 0 -15.85,-3.65c-6,-0.94 -12.11,-1.25 -17.77,1.11c-9.62,4 -15.63,13.66 -17.74,23.53c-2.51,11.8 -0.76,24.45 1.6,36.15a154.63,154.63 0 0 0 11,33.74a152.08,152.08 0 0 0 8.48,15.95c2.85,4.66 5.86,9.82 11.13,12s11.39,1.6 16.9,1.17a100.72,100.72 0 0 0 17.51,-2.87a74.62,74.62 0 0 0 29.82,-15a58.65,58.65 0 0 0 17.45,-24.9a46.66,46.66 0 0 0 1.91,-7.37c0.23,-1.34 -1.8,-1.93 -2.07,-0.57c-4.1,20.7 -20.47,36.17 -39.82,43.23a93.72,93.72 0 0 1 -33,5.56a20.09,20.09 0 0 1 -8.26,-1.5a16.13,16.13 0 0 1 -6.13,-5.5a117.19,117.19 0 0 1 -8.52,-14.17a152.44,152.44 0 0 1 -12.36,-32.17c-2.87,-11.07 -4.93,-22.82 -4.51,-34.3c0.38,-10.48 3.77,-21.4 12.45,-28a23.26,23.26 0 0 1 15,-4.59a77.88,77.88 0 0 1 16.59,2.66a121.51,121.51 0 0 1 54.36,29.74c1.85,1.76 3.64,3.59 5.37,5.47c0.59,0.64 1.52,-0.31 0.95,-0.95l-0.01,-0.01z"/>
  <path fill="#9a7e6f" id="svg_3" d="m772.41,651.05l-27.41,-10.87c-25.85,-10.24 -54.27,-20.61 -80.76,-12.18c-14.63,4.65 -26.91,14.59 -38.49,24.66q-24.84,21.57 -47.81,45.14c-10.07,10.33 -22.2,21.84 -36.51,20c-3.18,-0.4 -6.82,-1.36 -9.28,0.7c-3.42,2.87 -1.17,8.45 1.61,12a69.9,69.9 0 0 0 25.37,20a14,14 0 0 0 6.93,1.71c2.85,-0.26 5.3,-2 7.6,-3.77a805.81,805.81 0 0 1 80,-52.78c8.13,-4.69 16.85,-9.78 20.77,-18.31a132.5,132.5 0 0 1 71.48,27.61"/>
  <path id="svg_4" d="m772.58,650.44c-15.49,-6.29 -30.91,-12.94 -46.72,-18.4c-15,-5.18 -30.88,-9.16 -46.86,-7.91a67.27,67.27 0 0 0 -21.91,5.5a96,96 0 0 0 -19.21,11.7c-6.09,4.67 -11.88,9.67 -17.58,14.72q-9.45,8.34 -18.63,17t-18.08,17.56c-5.25,5.27 -10.3,10.78 -15.93,15.64c-5.16,4.45 -11,8.53 -17.74,10.11a25.92,25.92 0 0 1 -9.93,0.26c-3,-0.44 -6.43,-0.86 -8.83,1.43c-4.72,4.51 0.55,11.72 3.7,15.37a71.1,71.1 0 0 0 16.31,13.89a57.85,57.85 0 0 0 9.55,4.92a11.26,11.26 0 0 0 10.35,-0.84c3.35,-2 6.39,-4.62 9.54,-6.93q5,-3.64 10,-7.22q20.32,-14.41 41.51,-27.57q10.49,-6.51 21.17,-12.7c5.79,-3.35 11.78,-6.69 16.52,-11.49a27.63,27.63 0 0 0 5.44,-7.65l-0.87,0.5a131.68,131.68 0 0 1 70.62,27.45c1.25,1 3,-0.77 1.76,-1.76a134,134 0 0 0 -72.36,-27.74a1,1 0 0 0 -0.87,0.5c-2.79,6 -7.89,10.19 -13.3,13.69c-6.24,4 -12.81,7.55 -19.17,11.38q-20.55,12.35 -40.34,25.91q-10,6.84 -19.76,14c-3.12,2.28 -6.17,4.66 -9.32,6.88a13.45,13.45 0 0 1 -4.86,2.42a10.06,10.06 0 0 1 -5.74,-0.83a63.41,63.41 0 0 1 -17.94,-11.35a67.7,67.7 0 0 1 -7.35,-7.51c-2,-2.34 -4,-5.08 -4.31,-8.24a4.31,4.31 0 0 1 1.16,-3.66a5.72,5.72 0 0 1 4.46,-1.17c3.27,0.19 6.36,1 9.66,0.64c6.36,-0.6 12.2,-3.53 17.32,-7.23a118.65,118.65 0 0 0 15.09,-13.71q8.48,-8.67 17.2,-17.09c11.45,-11 23.17,-21.82 35.36,-32c11.31,-9.48 23.67,-18.17 38.31,-21.41c15.24,-3.39 31,-0.92 45.84,3.31c15.35,4.39 30.1,10.69 45,16.43l11.46,4.43c0.77,0.29 1.08,-0.93 0.34,-1.23l-0.06,0z"/>
  <path id="svg_5" fill="#4793af" d="m762.25,539.41a120.33,120.33 0 0 0 -4.47,-17.67a21.59,21.59 0 0 0 -2.81,-6.4a16.09,16.09 0 0 0 -6.46,-4.84c-9.33,-4.27 -20.53,-3.71 -30.43,-2.05c-3.84,0.64 -7.74,2.12 -10.2,5.15a14.62,14.62 0 0 0 -2.84,9.77c0.27,7.24 2.71,18.42 9.11,22.78a7,7 0 0 0 4.32,1.38c3.53,-0.22 5.73,-3.84 7.16,-7.08a5.86,5.86 0 0 1 1.69,-2.53a5.44,5.44 0 0 1 2,-0.75a73.56,73.56 0 0 1 13.79,-1.79a6.68,6.68 0 0 1 2.32,0.19c1.84,0.6 2.84,2.51 4.08,4a11.57,11.57 0 0 0 9.1,4.11c0.9,0 2,-0.34 2.17,-1.23"/>
  <path id="svg_6" d="m713.56,516.41a4.4,4.4 0 0 0 0.33,0.92c0.13,0.32 0.25,0.65 0.4,1l0.78,1.68c0.54,1.16 1.13,2.29 1.71,3.43l0.57,-1.4l0.15,0c0.09,0 0.08,0 0,0c0.1,0.15 -0.13,-0.18 -0.08,-0.11a7.51,7.51 0 0 1 -0.39,-0.67c-0.29,-0.51 -0.57,-1 -0.84,-1.54s-0.54,-1 -0.79,-1.57c-0.13,-0.26 -0.25,-0.52 -0.37,-0.79c0,0 -0.24,-0.41 -0.21,-0.45a0.22,0.22 0 0 1 0,0.16a1,1 0 0 1 -0.07,0.25l-0.35,0.34l-0.13,0l-0.73,-0.09l0.23,0.13a0.9,0.9 0 0 0 1.17,-0.23a0.94,0.94 0 0 0 -0.07,-1.2a1.11,1.11 0 0 0 -0.88,-0.48a1.06,1.06 0 0 0 -0.9,0.51a1.47,1.47 0 0 0 0,1.41c0.35,0.83 0.74,1.63 1.15,2.43s0.82,1.6 1.28,2.37s1.27,1.6 2.33,1.34a1,1 0 0 0 0.57,-1.4c-0.6,-1.12 -1.18,-2.26 -1.82,-3.36l-0.92,-1.6c-0.16,-0.27 -0.33,-0.52 -0.5,-0.78a4.49,4.49 0 0 0 -0.63,-0.87a0.6,0.6 0 0 0 -1,0.57l0.01,0z"/>
  <path id="svg_7" d="m713.05,520.32a4.23,4.23 0 0 0 1.42,0c0.44,-0.06 0.88,-0.16 1.32,-0.25s0.83,-0.19 1.26,-0.25l0.19,0l0.29,0l0.29,0s0.39,0 0.23,0l0,-1.82a16,16 0 0 1 -5.55,1.07a1,1 0 0 0 -1,1a1,1 0 0 0 1,1a16.55,16.55 0 0 0 6.29,-1.27a1,1 0 0 0 0.43,-1.08a1,1 0 0 0 -0.91,-0.69c-1.83,-0.18 -3.55,0.77 -5.25,1.27c-0.5,0.15 -0.57,1 0,1.09l-0.01,-0.07z"/>
  <path id="svg_8" fill="#fff" d="m777,541.24a22.41,22.41 0 0 0 -17.76,-22.88c-1.23,-0.26 -2.89,-0.16 -3.22,1a2.52,2.52 0 0 0 0.82,2.16a28.33,28.33 0 0 0 4.53,4.36a6.3,6.3 0 0 0 -3.2,5.49c0,3.43 2.83,6.13 5.5,8.29"/>
  <path id="svg_9" d="m777.57,541.24a22.83,22.83 0 0 0 -6.93,-17.87a24.09,24.09 0 0 0 -7.78,-4.91c-2,-0.77 -5.78,-2.25 -7.43,-0.09c-1,1.37 -0.13,2.91 0.8,4a28.33,28.33 0 0 0 4.41,4.21l0.19,-1.52a7.31,7.31 0 0 0 -3.53,7.63c0.6,3.24 3.21,5.67 5.65,7.66c0.94,0.76 2.28,-0.56 1.34,-1.33c-1.94,-1.59 -4.06,-3.41 -4.89,-5.85a5.39,5.39 0 0 1 2.41,-6.44a1,1 0 0 0 0.19,-1.52a29.72,29.72 0 0 1 -4,-3.75c-0.38,-0.43 -1.46,-1.43 -1,-2c0.36,-0.42 1.47,-0.25 1.91,-0.17a20.71,20.71 0 0 1 8.7,4a22.47,22.47 0 0 1 8.7,18a0.62,0.62 0 0 0 1.24,0l0.02,-0.05z"/>
  <path id="svg_10" d="m745,515a3.48,3.48 0 0 1 3.67,2.22a1.78,1.78 0 0 1 -0.12,1.61a2,2 0 0 1 -0.95,0.61a3.82,3.82 0 0 1 -3.59,-0.2a3.29,3.29 0 0 1 -0.84,-1a3,3 0 0 1 -0.46,-1.7a1.79,1.79 0 0 1 0.9,-1.45"/>
  <path id="svg_11" d="m745,515.6a3.84,3.84 0 0 1 1.16,0.22a3.24,3.24 0 0 1 0.89,0.55l0.41,0.41c0.1,0.12 0.05,0.06 0,0l0.1,0.14l0.17,0.28l0.07,0.15s0,-0.13 0,0l0.09,0.29s0,0.2 0,0.11s0,0.07 0,0.07s0,0.11 0,0.17l0,0.08s-0.09,0.27 0,0.17c-0.06,0.11 -0.06,0.08 0,0l-0.13,0.13c0.06,-0.05 -0.15,0.08 -0.19,0.1a1.38,1.38 0 0 1 -0.27,0.11a5.61,5.61 0 0 1 -0.67,0.19l-0.32,0.07s-0.17,0 0,0l-0.23,0l-0.51,0s-0.17,0 0,0l-0.31,-0.06l-0.13,0s-0.24,-0.09 -0.13,0a2,2 0 0 1 -0.9,-0.77a2.38,2.38 0 0 1 -0.46,-1.45a1.17,1.17 0 0 1 0.17,-0.47s0.09,-0.12 0,0l0.11,-0.12l0.28,-0.25a0.78,0.78 0 0 0 -0.75,-1.29a2.2,2.2 0 0 0 -1.45,1.57a3.35,3.35 0 0 0 0.21,2.29a4.27,4.27 0 0 0 1.28,1.69a3.77,3.77 0 0 0 1.93,0.72a5.31,5.31 0 0 0 2,-0.2a3.27,3.27 0 0 0 1.88,-1.16c0.8,-1.16 0.19,-2.74 -0.65,-3.68a3.84,3.84 0 0 0 -3.78,-1.13a0.57,0.57 0 0 0 0.15,1.12l-0.02,-0.05z"/>
  <path id="svg_12" d="m726,523a3.48,3.48 0 0 1 3.67,2.22a1.78,1.78 0 0 1 -0.12,1.61a2.11,2.11 0 0 1 -0.95,0.61a3.82,3.82 0 0 1 -3.6,-0.21a3.37,3.37 0 0 1 -0.83,-1a3,3 0 0 1 -0.46,-1.7a1.76,1.76 0 0 1 0.9,-1.45"/>
  <path id="svg_13" d="m726,523.59a3.62,3.62 0 0 1 1.16,0.23a3,3 0 0 1 0.88,0.55a4,4 0 0 1 0.41,0.41c0.11,0.11 0.05,0.05 0,0l0.1,0.14a2.54,2.54 0 0 1 0.16,0.28l0.08,0.15s0,-0.13 0,0l0.09,0.29s0,0.19 0,0.11s0,0.06 0,0.06a1.09,1.09 0 0 0 0,0.18l0,0.08s-0.09,0.26 0,0.16c0,0.12 0,0.09 0,0.05l-0.13,0.13c0.06,-0.05 -0.16,0.08 -0.19,0.09a1.36,1.36 0 0 1 -0.27,0.12c-0.22,0.07 -0.45,0.14 -0.67,0.19l-0.32,0.06s-0.17,0 0,0l-0.23,0l-0.51,0s-0.17,0 0,0l-0.31,-0.07l-0.13,0s-0.25,-0.09 -0.13,0a2,2 0 0 1 -0.9,-0.78a2.33,2.33 0 0 1 -0.46,-1.44a1.08,1.08 0 0 1 0.17,-0.47s0.08,-0.13 0,0a1.27,1.27 0 0 1 0.11,-0.13a3.22,3.22 0 0 0 0.28,-0.24a0.78,0.78 0 0 0 -0.75,-1.29a2.2,2.2 0 0 0 -1.44,1.55a3.32,3.32 0 0 0 0.21,2.28a4.31,4.31 0 0 0 1.28,1.7a3.77,3.77 0 0 0 1.93,0.72a5.24,5.24 0 0 0 2,-0.2a3.31,3.31 0 0 0 1.89,-1.16c0.8,-1.16 0.19,-2.74 -0.65,-3.68a3.82,3.82 0 0 0 -3.78,-1.13a0.57,0.57 0 0 0 0.15,1.11l-0.03,-0.05z"/>
  <path id="svg_14" d="m742.76,524.62c0.28,0.6 0.57,1.19 0.88,1.77l0.94,1.74a0.91,0.91 0 0 0 1.24,0.32a0.92,0.92 0 0 0 0.33,-1.24l-1.1,-1.64c-0.37,-0.55 -0.76,-1.08 -1.15,-1.61a0.68,0.68 0 0 0 -0.91,-0.24a0.66,0.66 0 0 0 -0.23,0.9z"/>
  <path id="svg_15" d="m746.62,524.78c-0.49,0 -1,0 -1.48,0a11.82,11.82 0 0 0 -1.46,0.13c-0.54,0.07 -1.07,0.15 -1.59,0.26a1.79,1.79 0 0 0 -0.87,0.37a0.94,0.94 0 0 0 -0.16,1.2a0.84,0.84 0 0 0 0.74,0.43a0.93,0.93 0 0 0 0.64,-0.27a0.82,0.82 0 0 0 0,-1.13l0.25,0.58c0,-0.07 0,0 0,0.11l-0.23,0.39c-0.25,0.12 -0.29,0.16 -0.13,0.11l0.14,0l0.27,-0.08l0.58,-0.14c0.37,-0.09 0.75,-0.17 1.12,-0.24c0.74,-0.14 1.48,-0.29 2.23,-0.38a0.65,0.65 0 0 0 0.62,-0.63a0.62,0.62 0 0 0 -0.62,-0.62l-0.05,-0.09z"/>
  <path id="svg_16" fill="#e7cccc" d="m781.75,541.54a7.69,7.69 0 0 0 -6.12,-1.41a22.62,22.62 0 0 0 -6.07,2.18a7.65,7.65 0 0 0 -2.56,1.69a2.63,2.63 0 0 0 -0.55,2.87c-2.13,-0.18 -4.06,1.56 -4.8,3.57a13.51,13.51 0 0 0 -0.25,6.36a176.5,176.5 0 0 0 4.6,21.04a3.24,3.24 0 0 0 0.55,1.29c0.7,0.82 2,0.72 3,0.47c6,-1.45 11,-5.56 14.72,-10.47s6.17,-10.6 8.48,-16.3"/>
  <path fill="#ffb26f" id="svg_66" d="m242.5,533.6a7.67,7.67 0 0 1 6.11,-1.41a22.56,22.56 0 0 1 6.08,2.18a7.75,7.75 0 0 1 2.59,1.67a2.63,2.63 0 0 1 0.55,2.87c2.13,-0.18 4.06,1.56 4.8,3.57a13.51,13.51 0 0 1 0.25,6.36a176.5,176.5 0 0 1 -4.61,21.06a3.14,3.14 0 0 1 -0.55,1.28c-0.7,0.83 -2,0.73 -3,0.48c-6,-1.45 -11,-5.56 -14.72,-10.47s-6.17,-10.61 -8.48,-16.3"/>
  <path id="svg_17" fill="#8b322c" d="m262,531.46a120.21,120.21 0 0 1 4.47,-17.66a21.59,21.59 0 0 1 2.81,-6.4a16.2,16.2 0 0 1 6.46,-4.85c9.33,-4.26 20.53,-3.7 30.43,-2c3.84,0.64 7.74,2.12 10.2,5.15a14.68,14.68 0 0 1 2.84,9.77c-0.27,7.23 -2.71,18.42 -9.11,22.78a7,7 0 0 1 -4.32,1.38c-3.53,-0.22 -5.73,-3.85 -7.16,-7.08a5.8,5.8 0 0 0 -1.7,-2.53a5.33,5.33 0 0 0 -2,-0.75a74.52,74.52 0 0 0 -13.79,-1.8a6.94,6.94 0 0 0 -2.32,0.2c-1.84,0.6 -2.84,2.51 -4.08,4a11.57,11.57 0 0 1 -9.1,4.11c-0.9,0 -2,-0.34 -2.18,-1.23"/>
  <path id="svg_18" d="m309.7,507.9a4.43,4.43 0 0 0 -0.6,0.82c-0.18,0.27 -0.36,0.54 -0.53,0.83l-0.92,1.6c-0.64,1.1 -1.22,2.23 -1.82,3.36a1,1 0 0 0 0.56,1.4c1.07,0.26 1.83,-0.5 2.34,-1.34s0.87,-1.57 1.28,-2.37s0.79,-1.61 1.15,-2.43a1.47,1.47 0 0 0 0,-1.41a1.07,1.07 0 0 0 -0.87,-0.51a1.14,1.14 0 0 0 -0.91,0.48a0.93,0.93 0 0 0 -0.07,1.2a0.91,0.91 0 0 0 1.17,0.23l0.23,-0.13l-0.74,0.09l-0.12,-0.05l-0.35,-0.34a1.17,1.17 0 0 1 -0.07,-0.25a0.26,0.26 0 0 1 0,-0.17s-0.16,0.35 -0.18,0.4c-0.13,0.29 -0.27,0.57 -0.4,0.85c-0.25,0.53 -0.52,1 -0.79,1.57s-0.55,1 -0.84,1.53a6,6 0 0 1 -0.41,0.69c0.1,-0.13 -0.17,0.26 -0.06,0.1c-0.11,0.05 -0.11,0.06 0,0a0.38,0.38 0 0 1 0.15,0l0.57,1.4c0.57,-1.14 1.17,-2.27 1.71,-3.43l0.78,-1.68c0.14,-0.3 0.26,-0.61 0.38,-0.91a5,5 0 0 0 0.35,-1a0.6,0.6 0 0 0 -1,-0.57l0.01,0.04z"/>
  <path id="svg_19" d="m311.2,511.29c-1.7,-0.5 -3.42,-1.45 -5.25,-1.27a1,1 0 0 0 -0.48,1.77a16.35,16.35 0 0 0 6.29,1.26a1,1 0 0 0 1,-1a1,1 0 0 0 -1,-1c-0.51,0 -1,0 -1.51,-0.08a10.44,10.44 0 0 1 -1.24,-0.19a17.92,17.92 0 0 1 -2.8,-0.8l0,1.83l0.18,0l0.61,0l0.15,0c0.43,0.06 0.86,0.17 1.3,0.26s0.84,0.18 1.27,0.24a4.27,4.27 0 0 0 1.47,0c0.57,-0.1 0.5,-0.94 0,-1.09l0.01,0.07z"/>
  <path id="svg_20" fill="#fff" d="m247.3,533.3a22.41,22.41 0 0 1 17.76,-22.88c1.23,-0.26 2.89,-0.16 3.22,1a2.56,2.56 0 0 1 -0.82,2.17a27.84,27.84 0 0 1 -4.53,4.35a6.32,6.32 0 0 1 3.2,5.5c-0.05,3.43 -2.84,6.13 -5.5,8.29"/>
  <path id="svg_21" d="m247.92,533.3a22.49,22.49 0 0 1 8.69,-18a20.63,20.63 0 0 1 8.71,-4c0.5,-0.09 1.51,-0.25 1.91,0.17c0.53,0.57 -0.59,1.61 -1,2a29.22,29.22 0 0 1 -4,3.75a1,1 0 0 0 0.2,1.52a5.38,5.38 0 0 1 2.41,6.44c-0.82,2.44 -3,4.27 -4.89,5.85c-0.94,0.77 0.4,2.09 1.34,1.33c2.44,-2 5.05,-4.42 5.65,-7.67a7.31,7.31 0 0 0 -3.53,-7.62l0.19,1.52a28.94,28.94 0 0 0 3.89,-3.61c0.9,-1 2,-2.22 1.73,-3.68c-0.59,-3 -4.73,-1.91 -6.66,-1.28a22.77,22.77 0 0 0 -15.89,23.2a0.62,0.62 0 0 0 1.24,0l0.01,0.08z"/>
  <path id="svg_22" d="m359.23,671.45q6.19,5.53 12.53,10.9a12.51,12.51 0 0 0 4.24,2.65c2.07,0.63 4.29,0.15 6.42,-0.19a46.29,46.29 0 0 1 7.71,-0.56a7.53,7.53 0 0 1 3.46,0.61c2.16,1.11 2.93,4 2.39,6.31s-2.06,4.36 -3.55,6.27c-3.95,5 -8,10.09 -12.78,14.3s-10.56,7.57 -16.87,8.69a13.86,13.86 0 0 1 -6.08,-0.08c-2.8,-0.79 -5,-2.83 -7.1,-4.87a131.44,131.44 0 0 1 -20.13,-25.65"/>
  <path id="svg_23" d="m358.76,671.92c3.5,3.39 7.1,6.68 10.74,9.94a22.17,22.17 0 0 0 5.12,3.93a11,11 0 0 0 6.31,0.55a68.56,68.56 0 0 1 7.28,-0.76c1.84,-0.05 4.45,-0.38 5.75,1.23c2.75,3.41 -0.92,7.83 -3,10.46c-5.45,6.89 -11.22,13.88 -19,18.25c-3.62,2 -7.8,3.7 -12,3.78c-4.62,0.08 -7.72,-3.18 -10.72,-6.26a137.35,137.35 0 0 1 -9.87,-11.28c-3.16,-4 -5.78,-8.4 -8.79,-12.53a1.27,1.27 0 0 0 -2.19,1.28a78.06,78.06 0 0 0 8,12.13a127.72,127.72 0 0 0 9.35,11c3,3.19 6.35,7.05 10.79,8.18s9.32,-0.3 13.36,-2.05c8.81,-3.81 15.39,-11.13 21.22,-18.51c2.62,-3.31 6.35,-7.06 6.34,-11.58a7.17,7.17 0 0 0 -1.79,-4.85c-1.45,-1.54 -3.5,-1.84 -5.52,-1.86a49.43,49.43 0 0 0 -8.5,0.72a15.79,15.79 0 0 1 -4.28,0.36a7.71,7.71 0 0 1 -3.69,-1.69c-4.83,-3.58 -9.35,-7.6 -14,-11.42c-0.65,-0.53 -1.56,0.33 -0.94,0.94l0.03,0.04z"/>
  <path id="svg_24" fill="#a5b68d" d="m247.19,628.69c17.64,-8.17 36.55,-13.23 55.59,-17.13c10.65,-2.18 21.49,-4 32.35,-3.45s21.85,3.68 30.3,10.51a32.67,32.67 0 0 1 11.46,17.21c3.63,14.77 -5.5,29.64 -16,40.68c-13.83,14.58 -31.94,26.59 -52,27.34c-13.6,0.51 -27,-4.22 -38.7,-11.16s-22,-16 -32.16,-25.07"/>
  <path id="svg_25" d="m349.4,660.77c-13.27,12.47 -30.12,19.72 -47,26c-4.78,1.77 -9.63,3.32 -14.34,5.27c-1.42,0.59 -0.92,2.81 0.65,2.37c4.43,-1.23 8.75,-2.82 13.07,-4.4s8.59,-3.25 12.8,-5.09a135.64,135.64 0 0 0 24.1,-13.3a91.61,91.61 0 0 0 11.72,-9.81c0.65,-0.65 -0.34,-1.63 -1,-1l0,-0.04z"/>
  <path id="svg_26" d="m247.53,629.27a212.23,212.23 0 0 1 32.31,-11.41a316.36,316.36 0 0 1 33.74,-7.34c11.07,-1.74 22.54,-2.38 33.49,0.42c9.66,2.47 19,7.7 24.62,16.13a27.73,27.73 0 0 1 4.8,14a33.84,33.84 0 0 1 -2.62,14.28c-3.82,9.54 -10.72,17.64 -18.08,24.65c-14.31,13.64 -33,24.16 -53.31,22.55c-22.5,-1.78 -41,-16.1 -57.43,-30.28q-3.13,-2.7 -6.24,-5.43c-1.06,-0.92 -2.61,0.6 -1.56,1.55c16.83,15.14 35.05,30.94 57.93,35.47a59,59 0 0 0 31.05,-2.21a84.8,84.8 0 0 0 26.35,-15.65c8,-6.74 15.4,-14.61 20.54,-23.75c5,-8.89 7.63,-19.5 4.09,-29.4c-3.46,-9.66 -11.57,-16.94 -20.8,-21c-10.18,-4.48 -21.41,-5.45 -32.41,-4.55c-12,1 -23.88,3.69 -35.54,6.56a235.47,235.47 0 0 0 -33.72,10.8q-4,1.64 -7.85,3.45c-0.78,0.37 -0.1,1.51 0.68,1.16l-0.04,0z"/>
  <rect id="svg_27" y="234.75" x="261.65" width="476.7" rx="11.03" height="256.25" fill="#b5e3f2"/>
  <path id="svg_28" fill="#859f3d" d="m261.65,459.6l0,19.28a12.12,12.12 0 0 0 12.11,12.12l452.48,0a12.12,12.12 0 0 0 12.11,-12.12l0,-19.28l-476.7,0z"/>
  <path id="svg_29" fill="#000000" d="m727.32,489.35l-443.26,0c-3.64,0 -7.27,0 -10.9,0a9.58,9.58 0 0 1 -9.86,-9.41c0,-1.41 0,-2.83 0,-4.23l0,-228.8c0,-5.57 3.41,-10.35 9.38,-10.51l2,0l448.64,0l3.59,0a9.56,9.56 0 0 1 9.79,9.44c0.14,5.08 0,10.18 0,15.26l0,217.7c0,5.58 -3.37,10.38 -9.38,10.55c-2.12,0.06 -2.12,3.36 0,3.3a12.93,12.93 0 0 0 12.68,-13.21c0,-2.09 0,-4.17 0,-6.25l0,-211.83c0,-5.17 0.11,-10.35 0,-15.52a12.89,12.89 0 0 0 -12.81,-12.74c-1,0 -1.93,0 -2.9,0l-449.82,0c-1,0 -2.06,0 -3.08,0.07c-6.87,0.71 -11.35,6.59 -11.39,13.25l0,19.06l0,210.16l0,4.3a12.9,12.9 0 0 0 12.84,12.71c3.21,0.06 6.43,0 9.64,0l444.84,0a1.65,1.65 0 0 0 0,-3.3z"/>
  <path id="svg_30" fill="#fff" d="m781.91,478.59a32.9,32.9 0 0 1 -6,14.33c-1,1.41 -2.19,3.51 -0.9,4.71a7.72,7.72 0 0 0 1.3,0.78c1.85,1.17 1.87,3.8 1.76,6c-0.24,4.65 0.09,9.88 3.48,13.07s8.51,3.21 13,2.37c12.38,-2.3 24.11,-11.06 27.06,-23.29a33.9,33.9 0 0 0 -0.87,-17.44c-1.25,-4.21 -3.17,-8.34 -6.36,-11.35c-5.76,-5.42 -14.9,-6.16 -22.26,-3.24c-5,2 -9.89,8.66 -10.2,14.07"/>
  <path id="svg_31" d="m822.17,496.71a32.8,32.8 0 0 0 -0.43,-17.39c-1.38,-4.82 -3.61,-9.69 -7.56,-12.93a20.74,20.74 0 0 0 -12.94,-4.47c-4.41,-0.05 -9.23,0.95 -12.77,3.7c-3.87,3 -7.16,7.95 -7.24,13c0,0.9 1.24,0.84 1.35,0a18.34,18.34 0 0 1 6,-10.74c3.11,-2.82 7.39,-4 11.52,-4.09a19.58,19.58 0 0 1 11.96,3.21c3.87,2.72 6.15,7.12 7.55,11.53a36,36 0 0 1 1.39,17.86c-0.15,0.74 1,1.06 1.14,0.32l0.03,0z"/>
  <path id="svg_32" d="m781.33,478.43a36,36 0 0 1 -5,12.28c-1,1.58 -2.49,3.1 -2.76,5a3,3 0 0 0 0.43,2.1c0.54,0.81 1.49,1 2.16,1.61c1.3,1.23 1.06,3.52 1,5.13a30.81,30.81 0 0 0 0.18,5.68c0.48,3.62 2,7.11 5.21,9.1c3.57,2.2 8.27,2.15 12.2,1.13c0.72,-0.18 0.6,-1.41 -0.18,-1.33c-3.47,0.36 -7.27,0.68 -10.48,-1c-3.41,-1.79 -4.75,-5.44 -5.07,-9.08a44.76,44.76 0 0 1 0,-5.18a9.58,9.58 0 0 0 -0.63,-4.41a4.28,4.28 0 0 0 -1.25,-1.61c-0.82,-0.64 -2,-0.81 -1.71,-2.11c0.38,-1.77 2,-3.35 2.94,-4.86a31.14,31.14 0 0 0 4.17,-12.32c0.08,-0.66 -1,-0.81 -1.17,-0.16l-0.04,0.03z"/>
  <path id="svg_33" d="m782.69,488.52a3.46,3.46 0 0 1 0.41,0.66l-0.1,-0.18a1.29,1.29 0 0 1 0.08,0.26l0,-0.21a1,1 0 0 1 0,0.24l0,-0.23a1,1 0 0 1 -0.07,0.29l0.09,-0.2a0.83,0.83 0 0 1 -0.08,0.12l0.14,-0.17l-0.1,0.1l0.17,-0.14l0.89,0l0.18,0.14a0.52,0.52 0 0 1 -0.11,-0.1l0.14,0.18a0.83,0.83 0 0 1 -0.07,-0.13l0.09,0.21a0.57,0.57 0 0 1 0,-0.14l0,0.24a0.76,0.76 0 0 1 0,-0.15l0,0.25a0.83,0.83 0 0 1 0,-0.15l-0.09,0.23s0,0 0,0a0.88,0.88 0 0 0 0.13,-0.47l0,-0.25a0.92,0.92 0 0 0 -0.54,-0.6a0.88,0.88 0 0 0 -0.71,0a0.67,0.67 0 0 0 -0.3,0.19a0.91,0.91 0 0 0 -0.24,0.41a1.37,1.37 0 0 0 -0.07,0.45a1.86,1.86 0 0 0 0,0.34l0,0.11a1.49,1.49 0 0 0 0.68,0.84a0.91,0.91 0 0 0 0.56,0.1a0.46,0.46 0 0 0 0.23,-0.06a0.75,0.75 0 0 0 0.28,-0.18a0.76,0.76 0 0 0 0.09,-0.09a1.5,1.5 0 0 0 0.19,-0.25a1.46,1.46 0 0 0 0.16,-0.41a1.43,1.43 0 0 0 0,-0.65a1.27,1.27 0 0 0 -0.15,-0.41a1.71,1.71 0 0 0 -0.44,-0.56a2.36,2.36 0 0 0 -0.36,-0.26l-0.26,-0.14a0.62,0.62 0 0 0 -0.73,0.09a0.92,0.92 0 0 0 -0.16,0.27a0.61,0.61 0 0 0 0.06,0.46l0.01,-0.05z"/>
  <path id="svg_34" d="m802.73,489.19a1.34,1.34 0 0 0 -1.13,0.21a2,2 0 0 0 -0.7,1a4,4 0 0 0 -0.21,1a2.46,2.46 0 0 0 0.22,1.13a0.65,0.65 0 0 0 0.88,0.23a1.14,1.14 0 0 0 0.5,-0.92a1.06,1.06 0 0 0 -0.12,-0.53a1,1 0 0 0 -0.38,-0.42a0.65,0.65 0 0 0 -0.51,-0.07a0.63,0.63 0 0 0 -0.4,0.31a0.67,0.67 0 0 0 0.24,0.91c0.09,0.06 -0.12,-0.11 0,0s-0.09,-0.14 0,0s0,-0.17 0,-0.07s0,0 0,-0.05s0,0.12 0,0s0,0 0,0s0.06,-0.14 0,-0.09l0.07,-0.08l0.06,0l0.87,0.23l0,-0.08c0.07,0.11 0,0.07 0,0a1.24,1.24 0 0 1 0,-0.16c0,-0.11 0,0 0,0a0.22,0.22 0 0 0 0,-0.08l0,-0.19c0,-0.06 0,-0.13 0,-0.19s0,0 0,0s0,-0.06 0,-0.09s0,-0.24 0.08,-0.37a1.42,1.42 0 0 1 0.05,-0.16s0,-0.13 0,0a0.86,0.86 0 0 1 0.1,-0.16c0,-0.08 0,0 0,0s0,-0.05 0,-0.06l0.07,-0.06c0.05,-0.05 -0.09,0 0,0l0.07,0c0.09,-0.05 0,0 0,0l0.07,0l0.1,0a0.59,0.59 0 0 0 0.72,-0.41a0.58,0.58 0 0 0 -0.41,-0.71l-0.24,-0.07z"/>
  <path id="svg_35" d="m822.84,529.62c-1.41,-3.36 -2.68,-6.79 -3.77,-10.27s-1.82,-7.06 -2.75,-10.61c-0.28,-1.08 -1.85,-0.61 -1.65,0.46a80.42,80.42 0 0 0 3.12,10.71c1.17,3.45 2.52,6.83 4,10.16c0.27,0.59 1.31,0.16 1.05,-0.45z"/>
  <path id="svg_36" d="m786.93,483.6a3.39,3.39 0 0 0 -0.42,-0.33l-0.35,-0.16a7.82,7.82 0 0 0 -0.91,-0.36a6.8,6.8 0 0 0 -1.79,-0.32a0.76,0.76 0 0 0 -0.76,0.76a0.77,0.77 0 0 0 0.76,0.76l0.39,0l0.22,0l0.26,0c0.08,0 0.07,0 0,0l0.17,0l0.4,0.08a6.21,6.21 0 0 1 0.74,0.2l0.36,0.14a2.48,2.48 0 0 0 0.39,0.1a0.6,0.6 0 0 0 0.66,-0.27a0.59,0.59 0 0 0 -0.09,-0.71l-0.03,0.11z"/>
  <path id="svg_37" fill="#fff" d="m219.71,464.3c4.47,5.5 3,14.66 8.21,19.45a5.1,5.1 0 0 1 1.31,1.47c0.56,1.23 -0.17,2.41 -1.24,3.32c-2,1.75 -1.28,5.14 -1.13,7.54s0.5,5.07 0.5,7.6a9,9 0 0 1 -1.85,6a7.32,7.32 0 0 1 -4.38,2.2c-2.46,0.4 -4.95,-0.13 -7.41,0.19a3.24,3.24 0 0 0 -2.28,0.94a3.4,3.4 0 0 0 -0.5,1.64q-0.63,4.88 -1.12,9.78a4.37,4.37 0 0 1 -0.72,2.4a3.77,3.77 0 0 1 -2.87,1a29.6,29.6 0 0 1 -21.64,-8.6a3.19,3.19 0 0 1 -1.12,-1.84a3.53,3.53 0 0 1 0.7,-2.07a43,43 0 0 0 5.22,-19.32c0.43,-10.68 -6.51,-23.27 -0.53,-33.27a13.28,13.28 0 0 1 6,-5.32a22.25,22.25 0 0 1 13.42,-1.17c4,0.83 9.27,2.91 10.71,7.29"/>
  <path id="svg_38" d="m219.16,464.63c3.41,4.42 3.2,10.35 5.26,15.35a13.5,13.5 0 0 0 1.66,3c1,1.32 3.35,2.59 1.87,4.35a7.51,7.51 0 0 0 -2,2.85a11,11 0 0 0 -0.19,4a80.7,80.7 0 0 1 0.65,10.3a7.75,7.75 0 0 1 -1.4,4.41a6.68,6.68 0 0 1 -4.81,2.25c-1.7,0.14 -3.4,-0.07 -5.1,0c-1.44,0.05 -3.3,0.12 -4.31,1.31c-0.83,1 -0.8,2.53 -1,3.75q-0.36,2.93 -0.67,5.86c-0.17,1.58 0.13,4.3 -1.78,4.82a14,14 0 0 1 -4.78,0a28,28 0 0 1 -9.6,-2.72a27.53,27.53 0 0 1 -7.93,-5.63a1.74,1.74 0 0 1 -0.33,-2.38c0.38,-0.75 0.82,-1.48 1.2,-2.24a41.17,41.17 0 0 0 1.93,-4.66a42.31,42.31 0 0 0 2,-19.52c-0.88,-6.17 -2.88,-12.29 -2.58,-18.58a15.75,15.75 0 0 1 3.8,-10a15.47,15.47 0 0 1 10,-4.46a23.48,23.48 0 0 1 10.33,1.31c2.85,1 5.88,2.78 7,5.74c0.3,0.79 1.56,0.48 1.29,-0.35c-1.85,-5.59 -8.37,-7.73 -13.67,-8.32c-6.83,-0.77 -14.49,1.3 -18.06,7.61c-3.39,6 -2.45,13 -1.25,19.46a100.65,100.65 0 0 1 1.71,10.33a38.68,38.68 0 0 1 -0.84,11.2a39.43,39.43 0 0 1 -3.95,10.88c-0.75,1.35 -1.5,2.7 -0.62,4.2a14,14 0 0 0 3.59,3.48a30.44,30.44 0 0 0 19.25,6.57c1.39,0 2.92,-0.17 3.91,-1.28s1,-3 1.14,-4.5c0.23,-2.2 0.47,-4.4 0.75,-6.6c0.1,-0.85 0,-2.08 0.59,-2.77s2.16,-0.7 3.12,-0.72c3.51,0 7.18,0.52 10.11,-1.88c2.73,-2.23 3,-6 2.77,-9.23c-0.11,-2 -0.3,-4 -0.46,-6a21.54,21.54 0 0 1 -0.2,-4.39c0.24,-1.83 1.81,-2.46 2.48,-4.05a3.28,3.28 0 0 0 -1,-3.81a15.31,15.31 0 0 1 -4.23,-7.62a66.61,66.61 0 0 0 -2.49,-8.53a15.16,15.16 0 0 0 -2.11,-3.52c-0.45,-0.56 -1.44,0.19 -1,0.77l-0.05,-0.04z"/>
  <path id="svg_39" d="m221.74,480.11a1.06,1.06 0 0 0 -0.3,-0.71a0.86,0.86 0 0 0 -0.45,-0.24a1.27,1.27 0 0 0 -0.34,0a1.39,1.39 0 0 0 -0.52,0.14a1.73,1.73 0 0 0 -0.31,0.22a1.46,1.46 0 0 0 -0.36,0.55a0.68,0.68 0 0 0 -0.08,0.24a1.67,1.67 0 0 0 0,0.39a1.52,1.52 0 0 0 0.19,0.72a1.19,1.19 0 0 0 0.21,0.29c0.07,0.07 0.15,0.12 0.22,0.18l0.08,0a1.13,1.13 0 0 0 0.55,0.15l0.06,0a1.45,1.45 0 0 0 0.3,-0.05a1.53,1.53 0 0 0 0.27,-0.11l0.07,0a1.64,1.64 0 0 0 0.42,-0.41l0,-0.06l0.1,-0.24l0,-0.24a1,1 0 0 0 0,-0.25a1.15,1.15 0 0 0 -0.28,-0.48a0.84,0.84 0 0 0 -1.4,0.36a0.09,0.09 0 0 1 0,0l0.09,-0.21l0,0.05l0.14,-0.18a1,1 0 0 0 -0.25,0.42s0,0 0,0.05l0.09,-0.22a0.43,0.43 0 0 1 0,0.07l0.14,-0.18l-0.07,0.06l0.18,-0.14l-0.09,0.06l0.21,-0.09l-0.1,0l0.23,0l-0.09,0l0.23,0l-0.08,0l0.21,0.09a0.47,0.47 0 0 1 -0.09,-0.06l0.18,0.14l-0.08,-0.08l0.14,0.18a0.75,0.75 0 0 1 -0.07,-0.12l0.09,0.21a0.67,0.67 0 0 1 -0.05,-0.19l0,0.23a0.81,0.81 0 0 1 0,-0.22l0,0.23a1.1,1.1 0 0 1 0.06,-0.26l-0.08,0.19l0.1,-0.17l-0.13,0.17a0.47,0.47 0 0 1 0.1,-0.1l-0.16,0.12l0.1,-0.06l-0.19,0.08l0.1,0l-0.2,0l0.12,0l-0.2,0l0.33,0l-0.19,0l0.08,0l-0.17,-0.07l0.07,0l-0.13,-0.1a0.73,0.73 0 0 0 0.28,0.17a0.65,0.65 0 0 0 0.41,0a0.62,0.62 0 0 0 0.39,-0.58l-0.08,0.06z"/>
  <path id="svg_40" d="m222.53,475.11c0,-0.7 -0.75,-1 -1.3,-1.26l0.27,0.11a3.7,3.7 0 0 0 -2.48,-0.19l0.39,0l-0.13,0l0.4,2.94c0.43,-0.1 0.84,-0.22 1.28,-0.28l-0.41,0.05c0.28,0 0.55,-0.05 0.83,-0.06l0,-3a15,15 0 0 0 -2.11,0.35c-0.29,0.07 -0.58,0.16 -0.86,0.25a5.13,5.13 0 0 0 -1.15,0.43a1.59,1.59 0 0 0 -0.7,0.91a1.56,1.56 0 0 0 0.15,1.18a1.59,1.59 0 0 0 0.91,0.7a1.56,1.56 0 0 0 1.18,-0.15l0.24,-0.15a1.42,1.42 0 0 0 0.68,-1.19a1.39,1.39 0 0 0 -0.68,-1.19l-0.24,-0.11l-0.36,2.79a5.36,5.36 0 0 0 0.62,-0.25l-0.37,0.15a10.25,10.25 0 0 1 2.61,-0.68l-0.4,0.05l0.48,-0.05a1.64,1.64 0 0 0 1.07,-0.45a1.52,1.52 0 0 0 -1.07,-2.59a9.78,9.78 0 0 0 -1.43,0.16a5,5 0 0 0 -1.07,0.29a1.47,1.47 0 0 0 -0.66,0.38a1.57,1.57 0 0 0 -0.38,0.66a1.5,1.5 0 0 0 1,1.84a1.56,1.56 0 0 0 1.46,-0.38l-0.29,0.23a3.52,3.52 0 0 1 0.4,-0.18l-0.33,0.14a10.47,10.47 0 0 0 1.34,-0.55l-0.27,0.11l0.26,-0.06l-0.08,0l0.15,0a1.2,1.2 0 0 0 0.55,-0.13a0.86,0.86 0 0 0 0.42,-0.7l0.08,-0.12z"/>
  <path id="svg_41" d="m199.89,483.09l-0.16,0a1,1 0 0 1 0.25,0.07l-0.15,-0.06a0.92,0.92 0 0 1 0.27,0.16l-0.12,-0.1a1.14,1.14 0 0 1 0.24,0.25l-0.1,-0.13a1.68,1.68 0 0 1 0.21,0.37l-0.07,-0.16a3.23,3.23 0 0 1 0.22,0.75l0,-0.19a0.24,0.24 0 0 1 0,0.12l0,-0.18s0,0.06 0,0.08l0.07,-0.16l0,0.06l0.11,-0.14l0.14,-0.11l-0.05,0l0.17,-0.07l0.18,0l-0.06,0l0.19,0l0.17,0.07l0.14,0.11l0.11,0.14l0.07,0.17a0.06,0.06 0 0 1 0,0l0,0.19l0,0.19a0.06,0.06 0 0 1 0,0l-0.07,0.17l0,-0.06l-0.11,0.14l-0.14,0.11l0.06,0l-0.17,0.08l0.06,0l-0.19,0l0.12,0l-0.19,0a0.94,0.94 0 0 0 0.47,0a0.72,0.72 0 0 0 0.48,-0.49a0.69,0.69 0 0 0 -0.18,-0.68a1,1 0 0 0 -1.13,-0.11a0.9,0.9 0 0 0 -0.47,0.8a0.86,0.86 0 0 0 0.63,0.81a0.89,0.89 0 0 0 0.92,-0.33a1.39,1.39 0 0 0 0,-1.42a2.43,2.43 0 0 0 -0.59,-0.89a1.8,1.8 0 0 0 -1.2,-0.5a0.59,0.59 0 0 0 -0.58,0.59a0.54,0.54 0 0 0 0.17,0.41a0.69,0.69 0 0 0 0.41,0.17l-0.13,-0.23z"/>
  <path id="svg_42" d="m201.28,478.48c2.31,0.84 3.79,3.08 4.73,5.34c2.58,6.25 2.16,13.27 2.58,20c0.19,3 0.65,6.19 2.69,8.39a9.47,9.47 0 0 0 7,2.69c5.44,0 11.55,-0.38 13.85,-5.63c1.51,-3.45 1.19,-9.29 -0.06,-12.86c-1.17,-3.31 -4.45,-7.62 -8,-8.61c-2.21,-0.62 -4.56,0.11 -6.7,0.93a5,5 0 0 1 -2.06,0.47c-1.7,-0.12 -2.72,-1.88 -3.37,-3.45c-0.54,-1.27 -1,-2.56 -1.49,-3.86a9.12,9.12 0 0 1 -0.64,-5.38c0.27,-1 0.83,-1.84 1.06,-2.82a8.53,8.53 0 0 0 0,-2.67a2.14,2.14 0 0 0 -0.37,-1.22c-0.58,-0.7 -1.7,-0.42 -2.55,-0.07c-2.65,1.08 -5.38,2.23 -7.35,4.31a1.71,1.71 0 0 0 -0.58,1.14c0,0.8 1,1.71 0.39,2.23l0.7,0.35"/>
  <path id="svg_43" d="m201,479c4.74,2 5.78,8.84 6.2,13.33c0.47,5 0,10.16 0.93,15.12a9.67,9.67 0 0 0 8.65,8.31a29,29 0 0 0 6.11,-0.11a17.68,17.68 0 0 0 5.32,-1.27c3.6,-1.59 5.31,-4.87 5.73,-8.65a20.4,20.4 0 0 0 -2,-11.86c-1.94,-3.54 -5.41,-7.3 -9.77,-7.16a12.86,12.86 0 0 0 -3.63,0.72c-1.15,0.38 -2.71,1.36 -3.88,0.62a5.73,5.73 0 0 1 -1.79,-2.53a45.48,45.48 0 0 1 -1.72,-4.22a7.48,7.48 0 0 1 -0.46,-4.75c0.43,-1.36 1.11,-2.45 1.15,-3.91c0.05,-2 -0.36,-4.39 -2.91,-3.9a16.19,16.19 0 0 0 -3.48,1.35a20.06,20.06 0 0 0 -3.56,2a6.58,6.58 0 0 0 -2.28,2.32a2,2 0 0 0 -0.14,1.15c0,0.14 0.6,1.39 0.59,1.39a0.73,0.73 0 0 0 0.14,1.12l0.7,0.35c0.82,0.41 1.54,-0.82 0.72,-1.23l-0.7,-0.35l0.15,1.12a1.5,1.5 0 0 0 0.29,-1.57c-0.12,-0.38 -0.38,-0.68 -0.35,-1.1c0,-0.62 0.71,-1.11 1.17,-1.5a21,21 0 0 1 6.12,-3.29c0.61,-0.23 1.41,-0.63 1.9,0.12a3.71,3.71 0 0 1 0.15,1.57a10,10 0 0 1 -1,3.77c-0.77,2.19 -0.08,4.5 0.62,6.62c1,3.15 2.51,8.65 6.95,7.37c2.42,-0.7 4.76,-2 7.34,-1.12a10.61,10.61 0 0 1 4.51,3.53a17.07,17.07 0 0 1 3.57,10.95c0,3.77 -0.93,7.57 -4.57,9.33c-3.06,1.48 -7.24,1.68 -10.57,1.37a7.82,7.82 0 0 1 -5.82,-3.11a12.92,12.92 0 0 1 -1.81,-6.25c-0.46,-5.29 -0.23,-10.62 -1.29,-15.85c-0.84,-4.12 -2.51,-9.21 -6.8,-10.85c-0.61,-0.23 -1.05,0.8 -0.45,1.05l-0.03,0z"/>
  <path id="svg_44" d="m202.12,478.58a4,4 0 0 0 -5.83,4.61c0.42,1.3 1.47,2.28 2.12,3.47a9.19,9.19 0 0 1 0.75,5.6a13.23,13.23 0 0 1 -4.44,8.55a7.19,7.19 0 0 1 -3.84,1.66a4.35,4.35 0 0 1 -3.76,-1.55a7.28,7.28 0 0 1 -1.05,-2.4a127.48,127.48 0 0 0 -5.07,-13.76a35.7,35.7 0 0 1 -2.72,-7.55c-1.13,-6.06 1.54,-12.44 6,-16.72a8.51,8.51 0 0 1 3.07,-2.07c0.72,-0.24 1.49,-0.33 2.19,-0.61a16.32,16.32 0 0 0 3.28,-2.36a13.57,13.57 0 0 1 5,-2.05a32.27,32.27 0 0 1 17.37,0.92a5.42,5.42 0 0 1 2.81,1.68a4,4 0 0 1 0.32,3.74a11.58,11.58 0 0 1 -2.12,3.26c-2.81,3.44 -6.4,4.1 -10.2,6.4c-1.27,0.77 -2.06,4.37 -2.52,5.79c-0.25,0.76 -0.19,1.68 -0.76,2.24"/>
  <path id="svg_45" d="m202.44,478c-3.36,-2.29 -7.74,0.78 -7.12,4.71c0.37,2.3 2.49,3.76 3,6.05a12.53,12.53 0 0 1 -1,7.21a9.52,9.52 0 0 1 -5,5.21a4.23,4.23 0 0 1 -3.33,0c-1.2,-0.59 -1.58,-1.74 -1.94,-2.94a135.27,135.27 0 0 0 -5.52,-14.82a25.87,25.87 0 0 1 -2.4,-7.4a16.23,16.23 0 0 1 0.72,-6.67a19.65,19.65 0 0 1 3.29,-6.13a19.86,19.86 0 0 1 2.17,-2.32a7.94,7.94 0 0 1 3.66,-1.86c2.27,-0.6 3.63,-2.42 5.67,-3.43a21,21 0 0 1 7.48,-1.78a31.11,31.11 0 0 1 11.51,1.17a7.69,7.69 0 0 1 3.2,1.4c2.18,2.12 -1.14,5.73 -2.72,7.15c-1.82,1.65 -4.16,2.55 -6.34,3.61a11,11 0 0 0 -2.91,1.71a6.7,6.7 0 0 0 -1.31,2.29a25.11,25.11 0 0 0 -0.89,2.83c-0.24,0.91 -0.28,2.19 -0.85,2.93c-0.7,0.93 0.87,2.15 1.62,1.25a6.77,6.77 0 0 0 1.08,-2.68c0.26,-0.9 0.55,-1.78 0.84,-2.67a5.74,5.74 0 0 1 1.11,-2.35a13.16,13.16 0 0 1 3.33,-1.78a23.28,23.28 0 0 0 6.06,-3.68c1.72,-1.6 3.53,-3.86 3.82,-6.26c0.68,-5.61 -7,-6.54 -11,-7a32.81,32.81 0 0 0 -8.4,0.12a18.25,18.25 0 0 0 -7.62,2.43c-1,0.69 -1.83,1.65 -2.88,2.27s-2.63,0.74 -3.84,1.42a16.67,16.67 0 0 0 -5.06,5a19.35,19.35 0 0 0 -3.63,13.72a30,30 0 0 0 2.59,7.74c1.2,2.72 2.32,5.48 3.33,8.28c0.51,1.41 1,2.83 1.45,4.26a27.79,27.79 0 0 0 1.25,3.63a5.2,5.2 0 0 0 5.07,2.78c5.53,-0.39 8.68,-6.69 9.18,-11.53a10.4,10.4 0 0 0 -0.35,-4.3a15.78,15.78 0 0 0 -2.05,-3.53c-2,-3.1 1,-6.22 4.29,-4.83c0.7,0.29 1.05,-0.79 0.49,-1.16l-0.05,-0.05z"/>
  <path fill="#ffb26f" id="svg_46" d="m172.76,525.24c-4.08,-0.77 -6.49,-5.7 -5.37,-9.7s5,-6.83 9,-7.7s8.31,-0.08 12.27,1.17a53.94,53.94 0 0 1 12.93,6.06c4.46,2.87 8.5,6.39 13.2,8.83c9.75,5.07 22.17,5.46 29.85,13.33c4.38,4.5 6.44,10.79 7.42,17c3,18.84 -2.73,37.91 -3.05,57c-0.07,3.89 0.08,7.83 -0.78,11.62c-1.78,7.89 -7.95,14.37 -15.31,17.72c-8.44,3.84 -18.08,3.9 -27.33,3.24a195.07,195.07 0 0 1 -38.22,-6.64c-6,-1.67 -12.13,-3.76 -16.52,-8.16c-4.77,-4.78 -6.82,-11.69 -7.36,-18.43s0.25,-13.49 0.28,-20.24c0,-8.74 -1.2,-17.44 -1.26,-26.18s1.17,-17.77 5.69,-25.25s15.82,-14.38 24.53,-13.66"/>
  <path id="svg_67" d="m242.79,534.11c2.43,-1.59 5.17,-1.51 7.85,-0.61a32.18,32.18 0 0 1 4,1.73c1.15,0.56 3.17,1.65 2.49,3.27a0.82,0.82 0 0 0 0.7,1.22c2.39,-0.08 3.93,2 4.31,4.22c0.43,2.45 -0.16,5.08 -0.58,7.5c-0.86,5 -2.07,9.85 -3.34,14.72c-0.3,1.16 -0.58,2.33 -0.92,3.48c-0.4,1.36 -1.31,1.3 -2.54,1a20.9,20.9 0 0 1 -5.66,-2.39a30.46,30.46 0 0 1 -9.3,-9c-3.1,-4.51 -5.24,-9.55 -7.34,-14.59c-0.49,-1.17 -2.44,-0.68 -2,0.54c3.86,9.76 8.85,20.29 18.57,25.43a17.15,17.15 0 0 0 6.59,2.24a3.42,3.42 0 0 0 2.53,-0.72c0.93,-0.82 1.1,-2.2 1.39,-3.33a168.51,168.51 0 0 0 3.92,-18c0.42,-2.88 1,-6 -0.21,-8.82a5.93,5.93 0 0 0 -5.47,-3.82l0.78,1c1.58,-3.75 -3.71,-5.65 -6.25,-6.66c-3.27,-1.3 -7.48,-1.94 -10.28,0.72c-0.47,0.45 0.15,1.28 0.71,0.92l0.05,-0.05z"/>
  <path id="svg_47" d="m172.92,524.67a6.86,6.86 0 0 1 -5,-5.83a8.37,8.37 0 0 1 3,-7.42c5.47,-4.85 13.43,-3.11 19.63,-0.83a54.81,54.81 0 0 1 9.45,4.56c3,1.84 5.82,4 8.71,6.06a46.72,46.72 0 0 0 8.29,4.79a82.13,82.13 0 0 0 8,2.84c5.53,1.72 11.3,3.26 16.07,6.67c5.26,3.76 8,9.69 9.39,15.85c3.2,14.37 0.44,29.31 -1.26,43.68c-0.45,3.8 -0.84,7.62 -1.07,11.44c-0.21,3.61 -0.13,7.23 -0.29,10.85a24.23,24.23 0 0 1 -7.36,16.84c-10,9.71 -24.83,9.5 -37.78,8.37a189.43,189.43 0 0 1 -22.48,-3.31c-6.82,-1.42 -13.89,-2.93 -20.33,-5.63c-6,-2.52 -10.67,-6.66 -13.11,-12.77c-2.61,-6.54 -2.63,-13.66 -2.36,-20.59c0.15,-3.87 0.38,-7.74 0.33,-11.62s-0.33,-7.74 -0.61,-11.6c-0.51,-7.28 -1.06,-14.62 -0.16,-21.9c0.77,-6.25 2.61,-12.92 6.63,-17.91a31.36,31.36 0 0 1 14.39,-9.84a20.13,20.13 0 0 1 7.81,-1.12c1.3,0.1 1.29,-1.93 0,-2c-5.88,-0.42 -11.81,2 -16.59,5.29a30.13,30.13 0 0 0 -11.45,14.29c-5.73,14.66 -2,30.57 -1.93,45.77c0,13.72 -3.34,31.06 8.53,41.26c5.22,4.48 12.07,6.38 18.58,8.09a194.24,194.24 0 0 0 23.65,4.67a133.55,133.55 0 0 0 22.94,1.52c7,-0.27 14.1,-1.64 20.13,-5.32a28,28 0 0 0 11.76,-13.82a31.38,31.38 0 0 0 1.57,-10.57c0.07,-4 0.11,-7.89 0.42,-11.84c1.26,-15.87 5,-31.75 2.9,-47.72c-0.86,-6.53 -2.69,-13.2 -7.05,-18.31c-4,-4.69 -9.8,-7.12 -15.53,-9c-6.22,-2 -12.57,-3.54 -18.17,-7c-3.12,-1.94 -6,-4.23 -9.05,-6.3a56.24,56.24 0 0 0 -9.79,-5.33c-6.25,-2.63 -14,-4.86 -20.48,-1.88c-5.06,2.31 -8.54,7.89 -6,13.32a7.67,7.67 0 0 0 5.34,4.44c0.74,0.15 1.06,-1 0.32,-1.14l0.01,0z"/>
  <path id="svg_48" fill="#fff" d="m221.68,495.26a3.42,3.42 0 0 0 2.35,1.8a0.81,0.81 0 0 0 0.57,-0.07a0.75,0.75 0 0 0 0.35,-0.45a0.76,0.76 0 0 0 -0.08,-0.57a0.72,0.72 0 0 0 -0.45,-0.35a2.53,2.53 0 0 1 -0.7,-0.2l0.18,0.08a3.59,3.59 0 0 1 -0.76,-0.44l0.13,0.11a3,3 0 0 1 -0.53,-0.54l0.1,0.13a0.47,0.47 0 0 1 -0.09,-0.12a0.7,0.7 0 0 0 -0.37,-0.29a0.62,0.62 0 0 0 -0.7,0.91z"/>
  <path id="svg_50" d="m366.18,706.55a131.08,131.08 0 0 1 11.82,-11.26c2.1,-1.75 4.25,-3.46 6.48,-5s5.1,-3.27 8.13,-2.69c0.8,0.15 1.16,-1.06 0.34,-1.24c-2.65,-0.61 -5.2,0.34 -7.46,1.7a63.29,63.29 0 0 0 -7,5.22a117.57,117.57 0 0 0 -13.11,12.53c-0.48,0.53 0.3,1.32 0.79,0.79l0.01,-0.05z"/>
  <path id="svg_51" d="m367.15,712.39l1.81,2.88a0.56,0.56 0 0 0 0.77,0.21a0.58,0.58 0 0 0 0.2,-0.78l-1.83,-2.86a0.54,0.54 0 0 0 -0.75,-0.2a0.56,0.56 0 0 0 -0.2,0.75z"/>
  <path id="svg_52" d="m368.47,704.35a110.81,110.81 0 0 1 6.32,10.15a0.65,0.65 0 0 0 1.13,-0.65a85.73,85.73 0 0 0 -6.42,-10.1c-0.45,-0.62 -1.48,0 -1,0.6l-0.03,0z"/>
  <path id="svg_53" d="m374.25,698.21c1.93,3.74 3.88,7.47 5.81,11.21c0.41,0.78 1.59,0.09 1.19,-0.69c-1.94,-3.74 -3.94,-7.44 -6.05,-11.08c-0.35,-0.61 -1.27,-0.07 -0.95,0.56z"/>
  <path id="svg_54" d="m380.4,692.8c2,3.48 4.08,7 6.15,10.4a0.67,0.67 0 0 0 1.15,-0.67c-2.09,-3.44 -4.21,-6.88 -6.35,-10.29a0.55,0.55 0 0 0 -1,0.56l0.05,0z"/>
  <path id="svg_55" d="m386.91,687.69q2.25,5.09 4.34,10.23a0.68,0.68 0 0 0 0.82,0.47a0.67,0.67 0 0 0 0.47,-0.82c-1.45,-3.54 -3,-7 -4.67,-10.44c-0.31,-0.65 -1.25,-0.08 -1,0.56l0.04,0z"/>
  <path id="svg_56" d="m393.78,689.25a4.2,4.2 0 0 1 0.45,0.8l-0.06,-0.14a4.41,4.41 0 0 1 0.23,0.7a0.62,0.62 0 0 0 0.76,0.44a0.67,0.67 0 0 0 0.37,-0.29a0.6,0.6 0 0 0 0.06,-0.47a5,5 0 0 0 -0.94,-1.7a0.58,0.58 0 0 0 -0.39,-0.17a0.63,0.63 0 0 0 -0.33,0.12a0.56,0.56 0 0 0 -0.15,0.71z"/>
  <path id="svg_57" fill="#fff" d="m298.57,537.77a41.37,41.37 0 0 1 8.14,-23.68a5.23,5.23 0 0 1 2,-1.81a1.93,1.93 0 0 1 2.39,0.58a3,3 0 0 1 0.18,1.88a24.06,24.06 0 0 0 0.17,6.17c0,-1.49 1,-2.78 2.17,-3.76a18.76,18.76 0 0 1 6.2,-3.54a3.91,3.91 0 0 1 3.26,0a2.75,2.75 0 0 1 1,3a5.58,5.58 0 0 1 -1.84,2.73c0.87,-1.27 3.16,-0.74 3.7,0.71a3.24,3.24 0 0 1 -1.84,3.79c1.75,-0.67 3.58,1.4 3.36,3.26s-1.77,3.29 -3.35,4.3a1.49,1.49 0 0 1 2.25,0a2.37,2.37 0 0 1 0.21,2.45a6.08,6.08 0 0 1 -1.62,2a39.91,39.91 0 0 1 -9.21,6.28c-2,1 -4.34,2 -5.4,4"/>
  <path id="svg_58" d="m299.14,537.77a40.93,40.93 0 0 1 4.52,-17.37a41.64,41.64 0 0 1 2.14,-3.66c0.77,-1.17 1.67,-2.89 2.93,-3.59c0.83,-0.45 1.7,-0.23 1.75,0.81c0,0.72 -0.14,1.48 -0.17,2.2a26.76,26.76 0 0 0 0.29,5c0.14,1 1.62,0.68 1.66,-0.23c0.1,-2.85 4.11,-4.94 6.39,-5.93c1.09,-0.48 3.42,-1.57 4.31,-0.23s-0.4,3 -1.38,3.9l1.27,1.28a1.33,1.33 0 0 1 2.16,0.28c0.56,1.11 -0.5,2.31 -1.41,2.79a0.92,0.92 0 0 0 0.71,1.68c1.49,-0.43 2.42,1.42 2.09,2.67a6,6 0 0 1 -2.81,3.16l1.18,1.53c0.52,-0.58 1,0.11 1,0.67a2.21,2.21 0 0 1 -0.48,1.22a11.22,11.22 0 0 1 -2.08,2a40.37,40.37 0 0 1 -5.21,3.71c-2.92,1.75 -6.81,2.8 -8.6,5.93a1,1 0 0 0 1.78,1c1.28,-2.24 4,-3.07 6.18,-4.23a40.58,40.58 0 0 0 6.81,-4.58c1.66,-1.39 4,-3.23 3.53,-5.71c-0.4,-2 -2.88,-3.07 -4.32,-1.42c-0.69,0.79 0.2,2.18 1.18,1.53c1.95,-1.31 4.09,-3.33 3.77,-5.92c-0.27,-2.16 -2.32,-4 -4.53,-3.36l0.71,1.68c1.88,-1 3.25,-3.55 1.9,-5.52a3.13,3.13 0 0 0 -4.85,-0.42a0.9,0.9 0 0 0 1.27,1.28c1.44,-1.36 2.63,-3.22 2,-5.27s-2.69,-2.56 -4.58,-2.11a17.19,17.19 0 0 0 -6.23,3.13c-1.74,1.32 -3.41,2.92 -3.48,5.23l1.66,-0.22a31.24,31.24 0 0 1 -0.13,-6.34c0.06,-1.3 -0.36,-2.56 -1.74,-3c-3.14,-0.89 -5.29,3.51 -6.55,5.65a42.32,42.32 0 0 0 -5.8,20.72a0.57,0.57 0 0 0 1.13,0l0.03,0.06z"/>
  <path fill="#ffb26f" id="svg_59" d="m231.448249,530.53a75.037851,72.37 0 0 1 25.786809,16.83c10.057581,10.08 16.911253,22.81 26.958465,32.89c-2.457368,-1.35 -3.317965,-4.47 -2.934325,-7.18s1.721194,-5.17 2.695847,-7.74c2.529948,-6.64 2.633635,-14 5.599066,-20.48c1.036864,-2.25 3.494232,-4.68 5.72349,-3.48c-0.756911,-2.36 1.627877,-4.77 4.147456,-5.14s5.018422,0.69 7.351366,1.71c3.245384,1.42 6.978095,3.47 7.258048,6.91a2.851376,2.75 0 0 0 1.638245,2.92c2.073728,1.7 2.43663,4.57 2.623266,7.17a169.340635,163.32 0 0 1 -3.235016,44.77c-2.073728,9.39 -5.536854,19.39 -13.88361,24.61c-4.88363,3.06 -10.855967,4.06 -16.683142,4.19a40.219956,38.79 0 0 1 -13.645131,-1.75c-6.127866,-2 -11.405504,-5.84 -16.289134,-9.93a146.415571,141.21 0 0 1 -32.858221,-39.78"/>
  <path id="svg_60" d="m234.24,531.06a73.43,73.43 0 0 1 22.9,15.31c6.78,6.68 12,14.67 17.61,22.32a119.68,119.68 0 0 0 10,12.24l1.17,-1.51c-3,-1.84 -2.71,-5.83 -1.77,-8.73c0.56,-1.74 1.34,-3.39 2,-5.1a42.79,42.79 0 0 0 1.51,-5.31c0.8,-3.53 1.33,-7.12 2.28,-10.61a22.77,22.77 0 0 1 1.82,-5c0.69,-1.25 2.26,-3.3 3.91,-2.5a1,1 0 0 0 1.38,-1.06c-0.4,-1.6 0.81,-3 2.22,-3.66c1.79,-0.78 3.85,-0.19 5.58,0.47c2.6,1 5.83,2.33 7.52,4.66c0.87,1.2 0.67,2.32 1,3.65s1.77,2 2.56,3.11c1.85,2.65 1.53,6.88 1.65,9.94a153.86,153.86 0 0 1 -4.23,43.77c-1.4,5.52 -3.38,11.13 -7,15.64c-4.09,5.13 -10,7.72 -16.43,8.45c-7,0.81 -14.37,0.21 -20.75,-2.94c-5.91,-2.93 -11,-7.4 -15.72,-11.9a147.47,147.47 0 0 1 -27.45,-35.77c-0.65,-1.17 -2.39,-0.14 -1.78,1a136.65,136.65 0 0 0 26.13,34.78c5.16,5 10.7,10.1 17.14,13.43c6.69,3.46 14.34,4.32 21.77,3.59c6.74,-0.66 13.18,-3 17.77,-8.19c4.15,-4.68 6.5,-10.67 8.08,-16.65a143,143 0 0 0 3.84,-23a163.71,163.71 0 0 0 0.43,-24.66c-0.18,-3.08 -0.21,-6.64 -2.31,-9.13c-0.46,-0.54 -1.1,-0.89 -1.55,-1.42s-0.36,-1.73 -0.56,-2.56a7.12,7.12 0 0 0 -2,-3.34a22.23,22.23 0 0 0 -8.31,-4.55c-3,-1 -6.59,-1 -8.65,1.84a4.57,4.57 0 0 0 -0.8,3.91l1.38,-1.06c-3.67,-1.75 -6.28,2.37 -7.4,5.27c-1.62,4.2 -2.24,8.7 -3.19,13.08a45.56,45.56 0 0 1 -1.87,6.6a43.06,43.06 0 0 0 -2.3,6.42c-0.7,3.36 0,7.23 3.12,9.15a1,1 0 0 0 1.16,-1.51c-6.74,-7.06 -12,-15.32 -17.81,-23.09a81.43,81.43 0 0 0 -19.69,-19.29a74.1,74.1 0 0 0 -13.9,-7.26c-0.64,-0.26 -1.12,0.86 -0.47,1.13l0.01,0.04z"/>
  <path id="svg_62" d="m231.87,591.42c4.9,5.72 9.8,11.46 14.81,17.09c0.64,0.72 1.68,-0.33 1,-1.06c-4.94,-5.67 -10,-11.26 -15.06,-16.84c-0.5,-0.54 -1.27,0.26 -0.8,0.81l0.05,0z"/>
  <path id="svg_63" d="m247.9,611.29a0.55,0.55 0 0 0 0,-1.09a0.55,0.55 0 0 0 0,1.09z"/>
  <path id="svg_64" d="m281.85,576.79a11.41,11.41 0 0 1 3.94,7.17a0.68,0.68 0 0 0 0.83,0.47a0.7,0.7 0 0 0 0.47,-0.82a12.31,12.31 0 0 0 -4.42,-7.64a0.61,0.61 0 0 0 -0.82,0a0.6,0.6 0 0 0 0,0.82z"/>
  <path id="svg_65" d="m287.73,576.2a5.64,5.64 0 0 1 1.67,1.9a5.44,5.44 0 0 1 0.66,2.41a0.67,0.67 0 0 0 0.65,0.64a0.65,0.65 0 0 0 0.64,-0.64a6.53,6.53 0 0 0 -3.07,-5.26a0.56,0.56 0 0 0 -0.75,0.2a0.56,0.56 0 0 0 0.2,0.75z"/>
  <path id="svg_68" d="m279.28,507.09a3.47,3.47 0 0 0 -3.67,2.22a1.78,1.78 0 0 0 0.12,1.61a2.05,2.05 0 0 0 0.94,0.61a3.84,3.84 0 0 0 3.6,-0.2a3.29,3.29 0 0 0 0.84,-1a3,3 0 0 0 0.46,-1.7a1.79,1.79 0 0 0 -0.9,-1.45"/>
  <path id="svg_69" d="m279.43,506.54a3.78,3.78 0 0 0 -3.48,0.84a3.43,3.43 0 0 0 -1.2,3.46c0.47,1.41 2.32,1.88 3.65,1.89a3.8,3.8 0 0 0 3.43,-2a3.7,3.7 0 0 0 0.51,-2.51a2.27,2.27 0 0 0 -1.46,-1.81a0.78,0.78 0 0 0 -0.75,1.29l0.11,0.12l0.13,0.1l0.17,0.16s0.09,0.15 0.11,0.21c0,-0.1 0,0 0,0l0.06,0.2s0,0.1 0,0.14a1.32,1.32 0 0 1 0,0.3a2.26,2.26 0 0 1 -0.24,0.69a2.44,2.44 0 0 1 -0.79,1a2.28,2.28 0 0 1 -1.07,0.32l-0.56,0a4.77,4.77 0 0 1 -0.73,-0.16l-0.54,-0.18a2.69,2.69 0 0 1 -0.29,-0.16l-0.05,0l-0.06,-0.07s0,0 0,0a0.49,0.49 0 0 1 -0.05,-0.16s0,-0.16 0,0a1.09,1.09 0 0 1 0,-0.18s0,-0.09 0,-0.13s0,0.1 0,0s0.07,-0.26 0.11,-0.38s0.05,-0.13 0,-0.06l0,-0.08l0.15,-0.25a1.39,1.39 0 0 1 0.33,-0.41l0.27,-0.26l0.1,-0.08c0.19,-0.17 -0.06,0 0.06,-0.05a3.76,3.76 0 0 1 0.61,-0.36c-0.07,0 0.05,0 0.05,0l0.2,-0.06a2.11,2.11 0 0 1 0.36,-0.09a3.52,3.52 0 0 1 0.64,-0.09a0.57,0.57 0 0 0 0.15,-1.11l0.07,-0.08z"/>
  <path id="svg_70" d="m298.28,515.08a3.48,3.48 0 0 0 -3.67,2.23a1.78,1.78 0 0 0 0.12,1.61a2.11,2.11 0 0 0 0.95,0.61a3.82,3.82 0 0 0 3.59,-0.21a3.17,3.17 0 0 0 0.84,-1a3,3 0 0 0 0.46,-1.69a1.79,1.79 0 0 0 -0.9,-1.46"/>
  <path id="svg_71" d="m298.43,514.54a3.81,3.81 0 0 0 -3.48,0.83a3.46,3.46 0 0 0 -1.2,3.47c0.47,1.41 2.32,1.88 3.65,1.89a3.81,3.81 0 0 0 3.43,-2a3.7,3.7 0 0 0 0.51,-2.51a2.27,2.27 0 0 0 -1.46,-1.81a0.78,0.78 0 0 0 -0.75,1.29l0.11,0.12s0.25,0.2 0.14,0.1l0.16,0.16l0.12,0.2c-0.05,-0.09 0,0 0,0l0.06,0.21s0,0.1 0,0.15a1.37,1.37 0 0 1 0,0.3a2.36,2.36 0 0 1 -0.24,0.69a2.42,2.42 0 0 1 -0.79,1a2.16,2.16 0 0 1 -1.07,0.31l-0.32,0s-0.36,0 -0.24,0a4.41,4.41 0 0 1 -0.72,-0.16a4.19,4.19 0 0 1 -0.55,-0.19a1.18,1.18 0 0 1 -0.29,-0.16s0.1,0.1 -0.05,0l-0.06,-0.06s0,0 0,0a0.55,0.55 0 0 1 -0.05,-0.17s0,-0.16 0,0a1.09,1.09 0 0 1 0,-0.18s0,-0.09 0,-0.13s0,0.1 0,0s0.07,-0.25 0.11,-0.38l0,-0.05l0,-0.09l0.14,-0.25a2,2 0 0 1 0.33,-0.41l0.27,-0.25l0.1,-0.08c0.19,-0.17 -0.05,0 0.06,-0.06a4.59,4.59 0 0 1 0.61,-0.35l0.05,0l0.2,-0.07l0.36,-0.09a4.66,4.66 0 0 1 0.64,-0.08a0.57,0.57 0 0 0 0.15,-1.11l0.07,-0.08z"/>
  <path id="svg_72" d="m280.35,516c-0.39,0.53 -0.78,1.06 -1.15,1.61l-1.1,1.64a0.91,0.91 0 0 0 1.57,0.91l0.94,-1.73c0.31,-0.58 0.6,-1.17 0.88,-1.77a0.67,0.67 0 0 0 -0.23,-0.9a0.69,0.69 0 0 0 -0.91,0.24z"/>
  <path id="svg_73" d="m277.63,518.09c0.75,0.09 1.49,0.24 2.22,0.37c0.38,0.07 0.76,0.15 1.13,0.24l0.54,0.14l0.26,0.07l0.18,0.05c0.17,0 0.13,0 -0.13,-0.11l-0.22,-0.39c0,-0.15 0,-0.19 0,-0.11l0.24,-0.59a0.84,0.84 0 0 0 0,1.13a1,1 0 0 0 0.65,0.27a0.84,0.84 0 0 0 0.74,-0.43a1,1 0 0 0 -0.16,-1.2a1.7,1.7 0 0 0 -0.87,-0.37c-0.52,-0.11 -1.06,-0.19 -1.59,-0.26a11.82,11.82 0 0 0 -1.46,-0.13c-0.49,0 -1,0 -1.48,0a0.62,0.62 0 0 0 -0.62,0.62a0.65,0.65 0 0 0 0.62,0.63l-0.05,0.07z"/>
  <path id="svg_74" d="m781.54,505.75a1.16,1.16 0 0 0 0.71,0.12a1.43,1.43 0 0 0 0.59,-0.23a5.08,5.08 0 0 0 0.77,-0.7c0.21,-0.22 0.42,-0.46 0.61,-0.7a5,5 0 0 0 0.62,-0.91a0.81,0.81 0 0 0 0.08,-0.59a0.78,0.78 0 0 0 -0.35,-0.45a0.73,0.73 0 0 0 -0.58,-0.07a0.81,0.81 0 0 0 -0.45,0.34c-0.15,0.22 -0.28,0.45 -0.42,0.67s-0.3,0.43 -0.46,0.64l0.11,-0.14c-0.18,0.23 -0.37,0.46 -0.57,0.68l-0.14,0.13c-0.09,0.07 0,0 0,0s-0.08,0.05 -0.1,0.06l-0.08,0.05c-0.12,0.06 0.05,0 0.05,0l-0.05,0s0,0 0.08,0a0.64,0.64 0 0 0 -0.73,0.36a0.61,0.61 0 0 0 0.26,0.77l0.05,-0.03z"/>
  <path id="svg_75" d="m805.23,494.24a9.09,9.09 0 0 0 0.63,-5.61a4.29,4.29 0 0 0 -4.15,-3.3c-2.33,0.21 -3.7,2.72 -4.22,5c0.64,-3.48 -1.65,-6.72 -3.24,-9.88a27.29,27.29 0 0 1 -2.76,-14.65a20.83,20.83 0 0 0 -8.49,10.64a10.68,10.68 0 0 1 -1.9,4c-0.21,-5.92 0.24,-12.45 4.34,-16.73c3.87,-4 10.22,-5 15.62,-3.48c0.85,0.23 1.68,0.51 2.54,0.66a18.85,18.85 0 0 0 2.6,0.2c1.88,0 3.75,0.09 5.62,0.2a20.63,20.63 0 0 1 5.69,1a16.31,16.31 0 0 1 8.2,7.27c4.25,7.12 7.15,16 4.28,24.21a32.06,32.06 0 0 1 -14.84,17.16a3,3 0 0 1 -1.14,0.41c-1.13,0.09 -1.94,-1 -2.52,-2l-5.88,-9.82c-0.84,-1.4 -1.64,-3.3 -0.55,-4.51"/>
  <path id="svg_76" d="m805.8,494.4c1.31,-3.28 1.6,-8.19 -2.5,-9.62c-3.55,-1.23 -5.87,2.39 -6.59,5.33l1.56,0.43c0.64,-4.18 -1.91,-7.53 -3.59,-11.13a27,27 0 0 1 -2.31,-13.62a0.88,0.88 0 0 0 -1.32,-0.76a22.33,22.33 0 0 0 -6.49,6.32a21.85,21.85 0 0 0 -2.07,3.95c-0.62,1.53 -0.91,3.28 -2,4.55l1.52,0.63c-0.24,-7.37 0.78,-16.28 8.82,-19.1a18,18 0 0 1 11.06,0.06c4.27,1.21 8.87,0.43 13.21,1.33c4.12,0.85 7.19,3.59 9.35,7.11a38.36,38.36 0 0 1 4.8,11.32a22.17,22.17 0 0 1 -0.49,12.63a29.84,29.84 0 0 1 -6,9.8a31,31 0 0 1 -4.83,4.33q-1.25,0.9 -2.58,1.68c-0.45,0.26 -1.12,0.78 -1.67,0.59s-0.88,-0.84 -1.13,-1.24c-1.46,-2.28 -2.81,-4.64 -4.2,-7c-0.66,-1.1 -1.35,-2.18 -2,-3.29s-1.14,-2.22 -0.42,-3.23s-0.81,-2 -1.48,-1.14c-1.33,1.62 -0.84,3.51 0.08,5.22c1.33,2.49 2.89,4.88 4.34,7.31c1,1.7 2,4.45 4,5.28s4.13,-1 5.65,-2c7.33,-4.94 13.31,-13.17 13.82,-22.21a30.87,30.87 0 0 0 -3,-14.17c-1.84,-4.15 -4.22,-8.18 -8,-10.81c-4.15,-2.88 -9.32,-2.74 -14.16,-2.78a18.54,18.54 0 0 1 -3.94,-0.29c-1.18,-0.28 -2.31,-0.68 -3.51,-0.89a19.35,19.35 0 0 0 -6.17,-0.14a14.4,14.4 0 0 0 -10.92,7.26c-2.35,4.34 -2.55,9.5 -2.39,14.33a0.9,0.9 0 0 0 1.52,0.63a10.57,10.57 0 0 0 1.89,-3.72a21.89,21.89 0 0 1 1.85,-4.17a20.25,20.25 0 0 1 6.47,-6.68l-1.33,-0.75a28,28 0 0 0 1.83,12.64c1.46,3.67 4.9,7.51 4.27,11.68c-0.15,1 1.31,1.46 1.56,0.43c0.49,-2 2,-5.21 4.62,-4.29c3.25,1.14 2.64,5.34 1.76,7.83c-0.25,0.73 0.87,1 1.15,0.32l-0.04,0.04z"/>
  <path id="svg_77" d="m828.73,477.36a27.53,27.53 0 0 1 1.08,-20.25a22.65,22.65 0 0 1 15.71,-12.43c3.53,-0.67 7.16,-0.4 10.74,-0.6c6.5,-0.36 12.88,-2.26 19.4,-2.17a5.75,5.75 0 0 1 2.84,0.57c1.55,0.91 2,2.89 2.33,4.66c0.59,3.19 1.17,6.49 0.48,9.66s-2.95,6.24 -6.14,6.83c-2.57,0.48 -5.14,-0.69 -7.5,-1.82c3,2.07 7.78,0.44 10.08,3.21a6.36,6.36 0 0 1 1.2,3.51c0.3,3 -0.15,6.26 -2.12,8.56s-5.75,3.15 -8.1,1.25a6.08,6.08 0 0 1 -0.88,11c-2.78,1 -5.87,-0.07 -8.53,-1.38a56.35,56.35 0 0 1 -11.51,-7.5c-3,-2.5 -5.78,-5.37 -9.4,-6.8s-8.39,-0.9 -10.47,2.38"/>
  <path id="svg_78" d="m829.34,477.19c-1.91,-6.48 -1.77,-13.69 1.31,-19.8a22.06,22.06 0 0 1 13,-11.24c3.34,-1 6.83,-0.93 10.29,-1a77.67,77.67 0 0 0 10.65,-1.1a61.6,61.6 0 0 1 11.09,-1.12c1.7,0 2.93,0.46 3.59,2.14a22.19,22.19 0 0 1 1,4.63c0.55,3.62 0.71,7.75 -1.79,10.73c-2.86,3.4 -6.76,2.13 -10.24,0.46a1.05,1.05 0 0 0 -1.06,1.82c1.9,1.23 4.14,1.26 6.31,1.53a6.11,6.11 0 0 1 3,1a5,5 0 0 1 1.49,3.71c0.21,2.64 -0.16,5.69 -2.07,7.68a5.08,5.08 0 0 1 -6.62,0.84l-1,1.8a5.09,5.09 0 0 1 -0.43,9c-3.83,1.73 -8.65,-1.39 -11.85,-3.29a73,73 0 0 1 -10.24,-7.69c-2.73,-2.35 -5.78,-4.71 -9.45,-5.24c-3.48,-0.51 -7.15,0.47 -9.18,3.5c-0.73,1.08 1,2.1 1.75,1c2.13,-3.15 6.71,-3.12 9.85,-1.67c4,1.82 7,5.24 10.36,7.87a51,51 0 0 0 11.59,6.92c3.67,1.49 8.08,1.74 10.73,-1.71a7.17,7.17 0 0 0 -2.09,-10.5c-1.17,-0.71 -2.08,1 -1,1.8c2.41,1.81 5.81,1.39 8.16,-0.33c2.62,-1.92 3.64,-5.27 3.71,-8.4c0.06,-3 -0.5,-6.3 -3.5,-7.62c-2.66,-1.17 -5.89,-0.36 -8.38,-2l-1.06,1.82c3.29,1.57 7,3 10.48,1.12a10.49,10.49 0 0 0 4.89,-7.81a21.57,21.57 0 0 0 -0.13,-5.95a29.06,29.06 0 0 0 -1.07,-5.39a5.37,5.37 0 0 0 -2.66,-3.28c-1.75,-0.82 -4,-0.57 -5.85,-0.45c-4.29,0.28 -8.49,1.2 -12.75,1.75s-8.46,0.24 -12.68,0.72a23.3,23.3 0 0 0 -16.56,10.18c-4.72,6.94 -5.35,16.09 -2.68,23.92a0.63,0.63 0 0 0 1.21,-0.34l-0.12,-0.01z"/>
  <path id="svg_79" fill="#e7cccc" d="m826.42,469.1a4.36,4.36 0 0 0 -0.16,2.32a8.94,8.94 0 0 0 0.73,2.07a6.6,6.6 0 0 0 1,1.61a3,3 0 0 0 1.88,1.11a0.93,0.93 0 0 0 0.91,-0.7a1,1 0 0 0 -0.43,-1.06a1.68,1.68 0 0 0 -0.3,-0.15c0.09,0 0.06,0 0,0l-0.33,-0.21c-0.12,-0.09 0.1,0.09 0,0l-0.13,-0.12a3.57,3.57 0 0 1 -0.27,-0.28s-0.23,-0.27 -0.14,-0.15l-0.23,-0.34c-0.13,-0.21 -0.26,-0.43 -0.38,-0.66a11.66,11.66 0 0 1 -0.64,-1.5a5.18,5.18 0 0 1 -0.4,-1.77a0.56,0.56 0 0 0 -1.1,-0.15l-0.01,-0.02z"/>
  <path id="svg_80" d="m793.59,520c0.75,2.28 1.61,4.53 2.42,6.79s1.59,4.55 2.44,6.81c0.31,0.82 1.59,0.5 1.34,-0.37c-0.68,-2.35 -1.49,-4.68 -2.33,-7s-1.69,-4.55 -2.71,-6.75c-0.3,-0.65 -1.38,-0.19 -1.16,0.49l0,0.03z"/>
  <path id="svg_81" fill="#e7cccc" d="m791.24,539.36a24.74,24.74 0 0 0 -2.88,-5.18c1.92,-3.6 5.69,-5.8 9.41,-7.51a74.73,74.73 0 0 1 22.36,-6.25c2.7,-0.32 6.23,0 7,2.65c0.53,1.87 -0.65,4.32 0.82,5.58a4.46,4.46 0 0 0 3,0.6c5.11,0 9.78,2.91 13.61,6.29c8.13,7.17 13.78,16.87 17.25,27.14s4.86,21.14 5.43,32c0.47,9.13 0.36,18.44 -2.31,27.18a50.87,50.87 0 0 1 -26.56,30.46a56,56 0 0 1 -40.54,2.56c-4.8,-1.52 -9.7,-3.93 -12.16,-8.31a24,24 0 0 1 -2.1,-6c-3.08,-12.2 -6.18,-24.44 -7.46,-37c-0.95,-9.36 -0.89,-18.83 -2.33,-28.14c-0.94,-6.12 -2.54,-12.31 -1.55,-18.42a22.73,22.73 0 0 1 17.75,-18.23"/>
  <path id="svg_82" d="m791.8,539.36c-0.09,-2 -1.54,-4 -2.65,-5.64l0,0.93c2,-3.43 5.68,-5.39 9.17,-7a71.26,71.26 0 0 1 13.3,-4.7c2.22,-0.54 4.47,-1 6.73,-1.31a14.28,14.28 0 0 1 5.45,-0.11a2.88,2.88 0 0 1 2.45,3.4c-0.08,1.62 -0.27,3.2 1,4.45a1,1 0 0 0 1.41,-1.4c-1,-1 -0.32,-3 -0.44,-4.24a4.28,4.28 0 0 0 -1.79,-3.16c-2.32,-1.64 -5.48,-1.22 -8.11,-0.86a74.67,74.67 0 0 0 -22.48,6.69c-3.35,1.64 -6.48,4 -8.24,7.34a0.91,0.91 0 0 0 0,0.93a27.48,27.48 0 0 1 1.74,2.65a12.93,12.93 0 0 0 1.52,2.46a0.58,0.58 0 0 0 1,-0.4l-0.06,-0.03z"/>
  <path id="svg_83" fill="#fff" d="m725.67,545.71a41.28,41.28 0 0 0 -8.13,-23.71a5.23,5.23 0 0 0 -2,-1.81a1.93,1.93 0 0 0 -2.39,0.58a3,3 0 0 0 -0.18,1.88a23.61,23.61 0 0 1 -0.18,6.17c0,-1.49 -1,-2.77 -2.16,-3.75a18.61,18.61 0 0 0 -6.2,-3.55a3.87,3.87 0 0 0 -3.26,0a2.71,2.71 0 0 0 -1,3a5.53,5.53 0 0 0 1.84,2.73c-0.88,-1.27 -3.17,-0.74 -3.7,0.71a3.24,3.24 0 0 0 1.84,3.79c-1.75,-0.66 -3.59,1.4 -3.36,3.26s1.77,3.29 3.34,4.3a1.47,1.47 0 0 0 -2.24,0a2.37,2.37 0 0 0 -0.22,2.44a6.27,6.27 0 0 0 1.63,2a40,40 0 0 0 9.21,6.27c2,1 4.34,2 5.4,4"/>
  <path id="svg_84" d="m726.24,545.71a42.32,42.32 0 0 0 -5.8,-20.72c-1.25,-2.12 -3.32,-6.4 -6.41,-5.68a2.52,2.52 0 0 0 -1.89,2.79a33.94,33.94 0 0 1 -0.12,6.53l1.66,0.22c-0.07,-2.27 -1.69,-3.86 -3.39,-5.16a17.42,17.42 0 0 0 -6.32,-3.2c-1.85,-0.44 -3.81,0 -4.52,2s0.48,4 1.95,5.42c0.86,0.81 2,-0.39 1.27,-1.27a3.13,3.13 0 0 0 -4.86,0.41c-1.34,2 0,4.5 1.91,5.52l0.71,-1.68c-2.21,-0.66 -4.26,1.2 -4.53,3.36c-0.32,2.59 1.82,4.61 3.77,5.92c1,0.65 1.87,-0.74 1.18,-1.53c-1.44,-1.65 -3.92,-0.53 -4.32,1.42c-0.5,2.48 1.87,4.32 3.53,5.71a39.59,39.59 0 0 0 6.81,4.58c2.16,1.16 4.89,2 6.18,4.23a1,1 0 0 0 1.78,-1c-1.79,-3.13 -5.68,-4.18 -8.6,-5.93a39.55,39.55 0 0 1 -5,-3.57a14.87,14.87 0 0 1 -2.1,-1.94a2.34,2.34 0 0 1 -0.63,-1.41c0,-0.56 0.5,-1.25 1,-0.67l1.18,-1.53a6,6 0 0 1 -2.81,-3.16c-0.33,-1.25 0.6,-3.1 2.09,-2.67a0.92,0.92 0 0 0 0.71,-1.68c-0.91,-0.48 -2,-1.67 -1.41,-2.79a1.33,1.33 0 0 1 2.16,-0.28l1.27,-1.27c-1,-0.9 -2.18,-2.31 -1.47,-3.72c0.8,-1.6 3.22,-0.48 4.4,0c2.28,1 6.29,3.08 6.39,5.93c0,0.9 1.51,1.21 1.66,0.23a26.84,26.84 0 0 0 0.3,-4.74c0,-0.74 -0.17,-1.5 -0.17,-2.24c0,-1.13 0.77,-1.53 1.73,-1c1.22,0.66 2.08,2.29 2.82,3.4a43.39,43.39 0 0 1 2.26,3.84a40.93,40.93 0 0 1 4.52,17.37a0.57,0.57 0 0 0 1.13,0l-0.02,-0.04z"/>
  <path id="svg_85" fill="#e7cccc" d="m789.7,538.47a72.37,72.37 0 0 0 -24.87,16.83c-9.7,10.08 -16.31,22.81 -26,32.89c2.37,-1.35 3.2,-4.47 2.83,-7.17s-1.66,-5.18 -2.6,-7.75c-2.44,-6.63 -2.54,-14 -5.4,-20.48c-1,-2.25 -3.37,-4.68 -5.52,-3.48c0.73,-2.36 -1.57,-4.77 -4,-5.14s-4.84,0.69 -7.09,1.71c-3.14,1.42 -6.73,3.47 -7,6.91a5,5 0 0 1 -0.19,1.5a4.62,4.62 0 0 1 -1.4,1.42c-2,1.7 -2.35,4.57 -2.52,7.17a162.93,162.93 0 0 0 3.12,44.77c2,9.39 5.34,19.39 13.39,24.61c4.71,3.06 10.47,4.06 16.08,4.19a38.57,38.57 0 0 0 13.17,-1.75c5.91,-2 11,-5.84 15.71,-9.93a141.39,141.39 0 0 0 31.71,-39.77"/>
  <path id="svg_86" d="m705.34,562.88a150.42,150.42 0 0 0 1.66,38.84c1.69,9.82 3.93,20.86 11.18,28.23a25.33,25.33 0 0 0 14,6.92a43.84,43.84 0 0 0 17.6,-0.51c5.51,-1.38 10.36,-4.35 14.79,-7.83a123.75,123.75 0 0 0 12.63,-11.59c8.9,-9.27 17,-19.91 22.8,-31.43c0.59,-1.18 -1.11,-2.2 -1.78,-1a159.12,159.12 0 0 1 -19,27.16a141.19,141.19 0 0 1 -11.55,11.53c-4.11,3.65 -8.47,7.14 -13.5,9.46c-5.39,2.47 -11.41,3.06 -17.27,2.75c-5.34,-0.28 -10.78,-1.51 -15.12,-4.77c-8,-6 -10.55,-16.77 -12.32,-26.05a179.64,179.64 0 0 1 -2.86,-41.67c0,-0.8 -1.16,-0.78 -1.23,0l-0.03,-0.04z"/>
  <path id="svg_87" d="m789.54,537.87a65.84,65.84 0 0 0 -23.29,14.69c-6.83,6.56 -12.18,14.39 -17.75,22a126.57,126.57 0 0 1 -10.44,12.88a1.08,1.08 0 0 0 1.3,1.69c5.95,-3.67 2.74,-11.47 0.58,-16.37c-0.48,-1.07 -2.23,-0.3 -1.89,0.8c0.83,2.66 2.34,5.15 2.57,8c0.18,2.15 -0.42,4.54 -2.35,5.73l1.31,1.69c6.51,-6.81 11.63,-14.73 17.17,-22.32s11.89,-14.59 19.77,-20a93.42,93.42 0 0 1 13.48,-7.66c0.63,-0.29 0.18,-1.37 -0.47,-1.13l0.01,0z"/>
  <path fill="#8b322c" id="svg_90" d="m336.540541,686.791087c-14.74,-5 -31,-4.15 -45.67,-9.24c-24.75,-8.58 -40.86,-32.17 -53.09,-55.33s-23.08,-48.25 -43.35,-64.84c-29.64,-24.26 -75,-23.85 -107.66,-3.83s-52.95,56.62 -59.13,94.42a170.17,170.17 0 0 0 -0.29,51.53a78.05,78.05 0 0 0 77.31,66.83l220.88,-0.1c41.2,0 56.3,-55.12 20.36,-75.27a56.53,56.53 0 0 0 -9.36,-4.17z"/>
  <path fill="#4793af" id="svg_91" d="m671.567566,687.331628c14.74,-5 31,-4.15 45.67,-9.24c24.75,-8.58 40.86,-32.17 53.09,-55.33s23.08,-48.25 43.35,-64.84c29.64,-24.26 75,-23.85 107.66,-3.83s53,56.62 59.13,94.42a170.17,170.17 0 0 1 0.29,51.53a78.05,78.05 0 0 1 -77.31,66.83l-220.88,-0.1c-41.2,0 -56.3,-55.12 -20.36,-75.27a56.53,56.53 0 0 1 9.36,-4.17z"/>
  <path id="svg_97" d="m712.71,554.53c3.93,-2 8,-4.09 12.55,-4.09a0.64,0.64 0 0 0 0,-1.28c-4.74,0 -9,2.22 -13.13,4.38c-0.65,0.34 -0.07,1.33 0.58,1l0,-0.01z"/>
  <path id="svg_98" d="m716.62,553.22a98.33,98.33 0 0 0 1.62,26.78a116.39,116.39 0 0 0 7.91,25.64a0.81,0.81 0 0 0 0.93,0.38a3.37,3.37 0 0 0 2.3,-3.11l-1.53,0.42c1.48,2.65 3.82,5.86 6.69,7.13s4.51,-1.73 5.66,-3.86c3.15,-5.85 6.57,-11.56 10.27,-17.08a180,180 0 0 1 25.68,-30.52a155.5,155.5 0 0 1 17.79,-14.5c0.81,-0.57 0,-1.91 -0.78,-1.34c-20.79,14.5 -37.64,34 -50.48,55.81q-1.36,2.33 -2.68,4.68a39.55,39.55 0 0 1 -2.52,4.5c-1.55,2.08 -3.42,0.26 -4.79,-1.08a19.51,19.51 0 0 1 -3.42,-4.52a0.83,0.83 0 0 0 -1.54,0.41a1.61,1.61 0 0 1 -1.08,1.52l0.93,0.38a115.49,115.49 0 0 1 -7.77,-25.25a144.4,144.4 0 0 1 -2,-26.35a0.61,0.61 0 0 0 -1.21,0l0.02,-0.04z"/>
  <path id="svg_99" d="m800.27,543.72a2.26,2.26 0 0 1 0,-0.45l0,0.17a2.66,2.66 0 0 1 0.18,-0.67l-0.07,0.16a2.92,2.92 0 0 1 0.33,-0.57l-0.1,0.13a1.34,1.34 0 0 1 0.11,-0.14a0.65,0.65 0 0 0 0,-0.94a0.65,0.65 0 0 0 -0.47,-0.2a0.67,0.67 0 0 0 -0.48,0.2a3.44,3.44 0 0 0 -0.63,1.14a3.09,3.09 0 0 0 -0.14,1.17a0.65,0.65 0 0 0 0.19,0.45a0.62,0.62 0 0 0 0.44,0.18a0.63,0.63 0 0 0 0.64,-0.63z"/>
  <path id="svg_100" d="m802.54,535.66a95.09,95.09 0 0 1 19.14,-4.85l-0.89,-0.51l-0.08,0.19c-0.54,0.76 0.73,1.5 1.26,0.73a1.47,1.47 0 0 0 0.22,-1.3a0.73,0.73 0 0 0 -0.89,-0.5a95.3,95.3 0 0 0 -19.06,5.18c-0.65,0.25 -0.37,1.3 0.3,1.06z"/>
  <path id="svg_102" d="m568.15,706a35.66,35.66 0 0 0 4.76,16.4a36.59,36.59 0 0 0 5.08,6.86a27.31,27.31 0 0 0 6.74,5.52c0.8,0.42 1.83,-0.71 1,-1.33a56.32,56.32 0 0 1 -6.25,-5.18a36.44,36.44 0 0 1 -5,-6.56a36,36 0 0 1 -5,-15.71c-0.07,-0.85 -1.38,-0.87 -1.34,0l0.01,0z"/>
  <path id="svg_103" d="m587.12,736.82a2.22,2.22 0 0 0 0.68,-0.13a2.15,2.15 0 0 0 0.72,-0.41a2.44,2.44 0 0 0 0.78,-1.14a0.61,0.61 0 0 0 -0.43,-0.75a0.62,0.62 0 0 0 -0.75,0.42a1.59,1.59 0 0 1 -0.07,0.2l0.06,-0.15a1.9,1.9 0 0 1 -0.23,0.39l0.1,-0.12a2.38,2.38 0 0 1 -0.36,0.35l0.12,-0.09a2,2 0 0 1 -0.47,0.27l0.14,0a2.2,2.2 0 0 1 -0.44,0.12a0.52,0.52 0 0 0 -0.33,0.25a0.65,0.65 0 0 0 -0.07,0.36a0.55,0.55 0 0 0 0.55,0.48l0,-0.05z"/>
  <path id="svg_104" d="m548.47,715.3a4.92,4.92 0 0 0 0.5,4.83a0.72,0.72 0 0 0 1,0.19a0.71,0.71 0 0 0 0.07,-1.05s-0.05,-0.06 0,0l-0.07,-0.11l-0.14,-0.21a4.92,4.92 0 0 1 -0.24,-0.45c0,0.1 0,-0.1 0,-0.13s-0.05,-0.17 -0.08,-0.25s-0.08,-0.35 -0.12,-0.52s0,0.09 0,0s0,-0.08 0,-0.13a2.09,2.09 0 0 1 0,-0.25a4.34,4.34 0 0 1 0,-0.51s0,-0.13 0,-0.07s0,-0.06 0,-0.08s0,-0.16 0,-0.24a4.51,4.51 0 0 1 0.17,-0.52a0.62,0.62 0 0 0 -1.13,-0.48l0.04,-0.02z"/>
  <path id="svg_105" d="m553.75,713.66a5.22,5.22 0 0 0 -0.47,3.16a5,5 0 0 0 1.35,2.83a0.74,0.74 0 0 0 1,0a0.75,0.75 0 0 0 0,-1l-0.09,-0.12c-0.07,-0.1 -0.14,-0.19 -0.2,-0.29a4.15,4.15 0 0 1 -0.32,-0.53l-0.07,-0.14s-0.07,-0.16 0,-0.08c0,-0.1 -0.07,-0.2 -0.1,-0.29a5,5 0 0 1 -0.17,-0.64a4.85,4.85 0 0 1 0.17,-2.38c0.21,-0.62 -0.77,-1.05 -1.06,-0.45l-0.04,-0.07z"/>
  <path id="svg_106" d="m559.38,710.88a6.86,6.86 0 0 0 1.49,5.18a0.66,0.66 0 0 0 0.88,0.06a0.67,0.67 0 0 0 0.18,-0.87a6.22,6.22 0 0 1 -1.38,-4.37a0.59,0.59 0 1 0 -1.17,0z"/>
  <path id="svg_107" d="m665.83,653.63a10.77,10.77 0 0 0 1.08,9.08c0.45,0.73 1.62,0 1.15,-0.68a10.12,10.12 0 0 1 -1.17,-8.1a0.55,0.55 0 0 0 -1.06,-0.3z"/>
  <path id="svg_108" d="m670.93,655l0.24,5.51a0.67,0.67 0 0 0 0.65,0.65a0.65,0.65 0 0 0 0.64,-0.65l-0.37,-5.51a0.6,0.6 0 0 0 -0.58,-0.59a0.59,0.59 0 0 0 -0.58,0.59z"/>
  <path id="svg_109" d="m803.08,569.8c-1.51,3.91 2.25,8.27 6.21,8.28c4.46,0 7.56,-4.53 7.35,-8.68c-0.06,-1.08 -1.72,-1.1 -1.7,0c0.07,3.6 4.15,5.39 7.14,3.82c3.88,-2 4.1,-6.83 3.2,-10.59c-0.27,-1.13 -2,-0.64 -1.74,0.48c0.8,4.1 5.86,5.46 9,3.12c3.83,-2.83 3.64,-8 1.49,-11.77c-0.43,-0.77 -1.89,-0.49 -1.76,0.48c0.29,2.25 3.23,2.85 4.67,1.18c2.45,-2.84 -1.34,-6 -1.88,-8.73a1,1 0 0 0 -1.2,-0.68a2.78,2.78 0 0 0 -1.93,1.44a1,1 0 0 0 1.65,1a0.86,0.86 0 0 1 0.8,-0.52l-1.2,-0.68c0.37,1.82 1.69,3.09 2.32,4.79c0.25,0.67 0.54,1.84 -0.17,2.32c-0.43,0.28 -1.13,0.22 -1.2,-0.33l-1.73,0.73c1.57,2.77 2.07,6.49 -0.44,8.9c-2.15,2.06 -6.06,1.52 -6.7,-1.69l-1.74,0.48c0.66,2.68 0.84,5.92 -1.39,7.94c-1.78,1.62 -5.44,1.28 -5.51,-1.65l-1.7,0c0.4,3.23 -1.87,6.91 -5.32,7.19a5.32,5.32 0 0 1 -5.36,-6.47a0.61,0.61 0 0 0 -1.18,-0.32l0.02,-0.04z"/>
  <path id="svg_110" d="m851.3,604.42a7.41,7.41 0 0 1 -2.58,-12.14a7.23,7.23 0 0 1 11.67,2.56a0.87,0.87 0 0 0 1.7,-0.23a12.09,12.09 0 0 1 4.34,-8.56c2.54,-2.1 6.68,-3 8.52,0.42c1.63,3 1.44,7.2 1.25,10.51c-0.13,2.24 -0.78,6.53 -3.81,6.41l0.5,1.83c2.32,-1.35 4.34,1.88 3.92,3.9c-0.57,2.71 -3.15,4.79 -5.35,6.21s-5.14,2.67 -7.74,1.64c-2.17,-0.86 -3.86,-3.21 -3,-5.53l-1.87,0.24c1.07,2 -0.45,4.2 -1.93,5.46c-1.64,1.41 -3.79,2.1 -5.65,0.69c-4.09,-3.08 -1.84,-8.64 -0.39,-12.48c0.4,-1 -1.36,-1.8 -1.81,-0.76c-1.33,3 -2.6,6.34 -2.07,9.71a7.74,7.74 0 0 0 4.53,6c5,2 11.82,-4.67 9.09,-9.66a1,1 0 0 0 -1.87,0.24c-1.25,3.24 1.05,6.64 4,7.9c3.64,1.56 7.74,-0.25 10.7,-2.44c2.74,-2 6,-5.23 5.29,-9c-0.57,-3 -4,-5.51 -6.9,-3.82a1,1 0 0 0 0.49,1.83c2.81,0.1 4.47,-2.35 5.2,-4.78c1,-3.38 0.76,-7.41 0.26,-10.86c-0.4,-2.83 -1.53,-5.92 -4.41,-7s-6.34,0.31 -8.59,2.33a13.92,13.92 0 0 0 -4.49,9.61l1.7,-0.23c-2.34,-5.81 -9.91,-7.76 -14.45,-3.2a8.69,8.69 0 0 0 3.45,14.28c0.69,0.24 1,-0.82 0.3,-1.08z"/>
  <path id="svg_111" d="m883.77,546a10.4,10.4 0 0 0 0,5.67a9.42,9.42 0 0 0 2.43,4.74a3.15,3.15 0 0 0 4.06,0.22a8,8 0 0 0 2.46,-4l-1.62,0c0.39,2.64 1.87,5.85 4.79,6.42c2.3,0.44 5.48,-1 5.29,-3.72a0.83,0.83 0 0 0 -1.65,0c-0.2,1.67 -2.27,2.45 -3.71,1.91c-2,-0.75 -2.81,-3.14 -3.1,-5c-0.13,-0.88 -1.39,-0.72 -1.62,0a6.67,6.67 0 0 1 -1.69,3c-1,0.92 -2.13,0.28 -2.83,-0.73a10.85,10.85 0 0 1 -1.59,-4a19.8,19.8 0 0 1 -0.14,-4.35a0.56,0.56 0 0 0 -1.1,-0.15l0.02,-0.01z"/>
  <path id="svg_112" d="m934.51,595.07c-6.54,-0.27 -13.38,5.22 -12.82,12.15c0.24,2.92 2,5.68 5.07,6.12c2.54,0.36 5.36,-0.9 6,-3.56a0.9,0.9 0 0 0 -1.73,-0.47c-1,2.8 -2,6 -0.86,8.88a7.5,7.5 0 0 0 5.05,4.38c5.18,1.46 9.85,-2.51 11.21,-7.32c0.25,-0.88 -1,-1.7 -1.62,-0.94c-1.64,2 -0.4,4.67 1.79,5.59c2.62,1.09 5.13,-1.06 6.25,-3.29a11,11 0 0 0 0.44,-9.11a7.19,7.19 0 0 0 -6.77,-4.4l0.81,1.4c2.15,-3.72 3,-9 -0.94,-12c-3.09,-2.29 -8.09,-0.53 -8.15,3.6l1.83,-0.25l-0.34,-1.55c-0.27,-1.17 -2.07,-0.67 -1.81,0.5l0.35,1.55c0.23,1 1.82,0.78 1.84,-0.25a3,3 0 0 1 2.46,-2.75a3.59,3.59 0 0 1 3.47,1.37c2.2,2.59 1.19,6.15 -0.33,8.79a1,1 0 0 0 0.81,1.41c4.62,-0.17 6.17,5.08 5.27,8.78c-0.4,1.62 -1.25,3.55 -2.89,4.26a2,2 0 0 1 -2.21,-0.35c-0.53,-0.47 -1,-1.33 -0.51,-2l-1.62,-0.94c-1.06,3.82 -4.66,7.17 -8.85,6a5.52,5.52 0 0 1 -4,-3.88c-0.61,-2.37 0.31,-4.88 1.08,-7.11l-1.73,-0.47c-0.46,2.06 -2.91,2.77 -4.75,2.18c-2.45,-0.79 -3.19,-3.72 -2.94,-6c0.58,-5.41 6,-9.22 11.2,-9.11c0.84,0 0.83,-1.27 0,-1.3l-0.06,0.09z"/>
  <path id="svg_113" d="m927.78,565.63a6.63,6.63 0 0 0 2.7,6.28a0.72,0.72 0 0 0 0.72,-1.25a5.33,5.33 0 0 1 -2.22,-4.87c0.06,-0.68 -1.11,-0.84 -1.2,-0.16z"/>
  <path id="svg_114" d="m780.62,638c-1.16,-4.49 0.23,-9.8 5,-11.51c4.18,-1.52 9,1.46 8.59,6.14l1.73,-0.23c-0.9,-2.72 1.71,-5 4.33,-4.78c3,0.3 5.07,2.92 6,5.62s1.55,6 0,8.46c-1.4,2.31 -4.21,3.32 -6.62,4.19a1,1 0 0 0 0.52,1.89c2.18,-0.59 2.84,2.63 2,4c-1.15,2 -3.62,2.89 -5.63,3.64c-2.31,0.85 -5.2,1.69 -7.55,0.52c-1.7,-0.85 -3.21,-3 -2.27,-4.94l-1.72,0a3.7,3.7 0 0 1 -5.23,4.93c-1.89,-1.23 -1.79,-3.54 -1.7,-5.55c0.11,-2.45 0.27,-4.9 0.33,-7.36c0,-1.26 -1.84,-1.23 -1.94,0c-0.14,1.8 -0.22,3.6 -0.31,5.4a27.07,27.07 0 0 0 -0.06,4.93a5.86,5.86 0 0 0 4.34,5.08c4.94,1.31 8.79,-4.13 6.37,-8.48a1.05,1.05 0 0 0 -1.8,0c-1.34,2.76 0,5.81 2.47,7.44c3.27,2.18 7.57,0.9 10.88,-0.46c2.67,-1.1 6.07,-2.9 6.35,-6.15c0.23,-2.71 -2.06,-5.77 -5,-4.93l0.52,1.89c3.2,-1.2 6.78,-2.66 8.19,-6s0.45,-7.9 -1.24,-11.06s-4.95,-5.44 -8.55,-4.79c-3.11,0.57 -5.45,3.87 -4.41,7a0.89,0.89 0 0 0 1.73,-0.24c0.45,-5.59 -5.33,-9.49 -10.45,-7.87c-5.66,1.79 -8,8.22 -6,13.56a0.6,0.6 0 0 0 1.16,-0.32l-0.03,-0.02z"/>
  <path id="svg_115" d="m849.27,681c-5.87,0.49 -8.45,-7.74 -5.55,-11.94c2.37,-3.41 8.7,-3.27 10.11,1a0.86,0.86 0 0 0 1.68,-0.23c0.16,-2.67 0.43,-5.64 1.93,-7.95a5.31,5.31 0 0 1 7.37,-1.54c6.76,3.93 3.21,13.62 1.81,19.42a1,1 0 0 0 1.7,1a1.41,1.41 0 0 1 1.86,0.13a3.12,3.12 0 0 1 0.69,2.78a16.27,16.27 0 0 1 -2,5.7c-2,3.68 -5.47,6.68 -9.76,7.12c-1.64,0.17 -3.92,0.06 -5.1,-1.3a1.28,1.28 0 0 1 0,-1.93c0.75,-0.69 1.21,-0.05 0.85,0.73c-0.84,1.8 -3.49,2 -5.21,1.91a16,16 0 0 1 -6.09,-1.8a8.74,8.74 0 0 1 -4.46,-4.24c-0.67,-1.69 -0.5,-4 1,-5.2c1.06,-0.82 0,-2.64 -1.06,-1.83a6.47,6.47 0 0 0 -2.25,7c0.72,2.84 3.13,4.89 5.65,6.17a16.46,16.46 0 0 0 9.22,2c2.45,-0.31 5.62,-1.84 5.52,-4.76s-3.37,-3.07 -4.93,-1.32c-1.86,2.09 -0.44,4.79 1.75,5.89c5.75,2.88 12.65,-1.2 15.84,-6c1.76,-2.65 3.58,-6.59 3.07,-9.85c-0.43,-2.71 -3.78,-5 -6.06,-2.67l1.69,1c0.92,-4.35 2.5,-8.7 2,-13.21c-0.39,-3.71 -2.19,-7.26 -5.75,-8.79a7,7 0 0 0 -8.52,2.08c-2,2.65 -2.37,6.24 -2.53,9.45l1.68,-0.22c-1.84,-5.42 -9.7,-6.08 -12.92,-1.61a9.47,9.47 0 0 0 -0.81,8.91c1.2,3 4.11,5.66 7.52,5.31c0.77,-0.08 0.79,-1.28 0,-1.22l0.06,0.01z"/>
  <path id="svg_116" d="m936.27,648.32c-6.73,0.85 -13.37,5.49 -15.83,11.94c-1.15,3 -1.08,6.57 1.09,9.1a6.64,6.64 0 0 0 7.77,2l-1.3,-1.36c-1.47,2.8 -3,6 -2.54,9.28a6.72,6.72 0 0 0 5.24,5.72c6.65,1.5 11,-4.33 14.14,-9.24c0.6,-0.94 -0.86,-2.12 -1.57,-1.21c-1.71,2.19 -0.14,5.35 2.51,5.83c3.31,0.61 6.1,-2.49 7.66,-5a16,16 0 0 0 2.39,-9.61c-0.19,-2.47 -1.19,-7 -4.55,-6.62a1.06,1.06 0 0 0 -1,0.74a1.92,1.92 0 0 0 2.46,2.34c1.63,-0.6 1.67,-2.71 0.74,-3.91c-1.23,-1.6 -3.63,-2.56 -5.42,-3.37a26.68,26.68 0 0 0 -6.43,-2.13a1,1 0 0 0 -0.51,1.83a46.57,46.57 0 0 1 6.11,2.15c0.84,0.38 5.48,2.27 5,3.63l-1,0.74c2.14,-0.24 2.51,3.74 2.57,5.17a14.23,14.23 0 0 1 -1.24,6.34a11.9,11.9 0 0 1 -3.89,5a3.14,3.14 0 0 1 -3.15,0.53c-0.67,-0.37 -1.47,-1.49 -0.88,-2.24l-1.57,-1.21c-2.5,4 -5.82,9 -11.19,8.45a4.87,4.87 0 0 1 -4.55,-4.42c-0.25,-2.73 1.07,-5.46 2.28,-7.81a1,1 0 0 0 -1.31,-1.32c-2.29,1.06 -5,-0.5 -6.1,-2.54c-1.43,-2.58 -0.57,-5.84 0.77,-8.26c2.79,-5 7.94,-8.17 13.44,-9.35c0.67,-0.15 0.53,-1.3 -0.17,-1.22l0.03,0.03z"/>
  <path id="svg_117" d="m906.07,736.7a6,6 0 0 1 -3.21,-5.61a9.55,9.55 0 0 1 3.06,-6.38c1.6,-1.62 4.17,-3.38 6.57,-2.58c1.68,0.57 2.88,3.07 1.37,4.4l1.4,1.08c0.87,-1.75 3.22,-5.42 5.31,-3a12.17,12.17 0 0 1 2.43,6.39a14.67,14.67 0 0 1 -4.44,12.26l1.74,0.72c-0.31,0.14 -0.41,0.32 -0.3,0.56a2.33,2.33 0 0 1 0.08,0.59a8.42,8.42 0 0 1 0,0.87a8.66,8.66 0 0 1 -0.28,2a9.94,9.94 0 0 1 -1.61,3.34a9.48,9.48 0 0 1 -6.48,3.91l1,0.79l-0.71,-3a1.12,1.12 0 0 0 -1.34,-0.76a33.13,33.13 0 0 1 -9.69,0.31a31.84,31.84 0 0 1 -4.63,-0.91c-0.73,-0.2 -1.46,-0.43 -2.17,-0.68c-0.9,-0.31 -1.83,-0.51 -1.79,-1.61a10.54,10.54 0 0 1 6.24,-8.52c1.37,-0.59 2.85,-0.81 4.2,-1.46s0.16,-2.37 -1.05,-1.81c-1.57,0.73 -3.32,0.91 -4.87,1.71a12.22,12.22 0 0 0 -3.54,2.77c-1.78,2 -3.74,5.55 -3.08,8.36c0.4,1.71 2,2.23 3.52,2.73a32.59,32.59 0 0 0 5.75,1.4a35.29,35.29 0 0 0 11.69,-0.2l-1.33,-0.76l0.72,3a1.07,1.07 0 0 0 1,0.79a12,12 0 0 0 9.71,-7.52c0.72,-1.8 1.2,-4.26 0.49,-6.14a2,2 0 0 0 -2.08,-1.49a1.69,1.69 0 0 0 -1.58,1.78a1,1 0 0 0 1.74,0.72a17,17 0 0 0 4.49,-16c-0.57,-2.31 -1.85,-5.87 -4.38,-6.64c-3,-0.9 -5.26,2.31 -6.36,4.61a0.89,0.89 0 0 0 1.39,1.08c1.94,-1.75 1.27,-4.8 -0.55,-6.38c-2.46,-2.13 -6,-0.9 -8.31,0.86a12,12 0 0 0 -4.88,8.29a7.35,7.35 0 0 0 4.07,7.19c0.71,0.31 1.33,-0.7 0.62,-1l0.07,-0.06z"/>
  <path id="svg_118" d="m966.51,699.87a7.81,7.81 0 0 0 -2.45,9.55a0.81,0.81 0 0 0 1.27,0.16a2.61,2.61 0 0 0 0.52,-3.22c-0.38,-0.72 -1.66,-0.22 -1.34,0.57a1.32,1.32 0 0 1 -0.32,1.51l1.27,0.17a6.38,6.38 0 0 1 1.77,-7.8c0.54,-0.41 -0.17,-1.34 -0.72,-0.94z"/>
  <path id="svg_119" d="m810.17,751.12a4.63,4.63 0 0 1 -3,-4.21a5.74,5.74 0 0 1 2.68,-5.08a6.2,6.2 0 0 1 9.49,4l1.56,-0.66c-3.5,-5.3 1.6,-12.44 7.25,-13.22a5.93,5.93 0 0 1 6.66,4.54c1,3.49 -0.29,7.09 -1.43,10.38a1,1 0 0 0 1.43,1.09a3.4,3.4 0 0 1 4.21,0.64a5.09,5.09 0 0 1 1.2,5.35a14,14 0 0 1 -3.38,5.53c-1.14,1.21 -3.76,2.91 -4.94,0.77a1,1 0 0 0 -1.4,-0.37a17.39,17.39 0 0 1 -14.09,0.61c-1.22,-0.46 -1.71,1.46 -0.54,1.94a19,19 0 0 0 15.66,-0.78l-1.4,-0.37c1.35,2.44 4.52,2.43 6.6,1a15,15 0 0 0 5.42,-7.8a7,7 0 0 0 -1.86,-7.37a5.3,5.3 0 0 0 -6.46,-0.83l1.43,1.1c1.35,-4 2.69,-8.32 1,-12.41a7.68,7.68 0 0 0 -8.37,-4.85c-6.82,0.95 -12.74,9.59 -8.48,15.91a0.85,0.85 0 0 0 1.55,-0.65a7.86,7.86 0 0 0 -12.39,-4.57a7.11,7.11 0 0 0 -2.86,6.63a5.67,5.67 0 0 0 4.09,4.93a0.64,0.64 0 0 0 0.34,-1.23l0.03,-0.02z"/>
  <path id="svg_120" d="m763.17,699.72c-4.22,-3.7 -10.49,-0.88 -12.56,3.74c-2,4.35 -1.82,12 3.25,14.29a0.89,0.89 0 0 0 1,-0.14a6.78,6.78 0 0 0 1.73,-4.46a0.88,0.88 0 0 0 -1.31,-0.76a7.77,7.77 0 0 0 -2.57,8.36a8.53,8.53 0 0 0 7.08,6.12c7.11,1.09 15.53,-5.79 12.69,-13.38c-0.42,-1.12 -2.17,-0.69 -1.83,0.5a6.09,6.09 0 0 0 6.5,4.22c3.09,-0.34 5.51,-3 6.33,-5.84c0.88,-3.11 0.27,-7.81 -2.1,-10.2a3,3 0 0 0 -3.55,-0.7a2.41,2.41 0 0 0 -1.14,3.21a1,1 0 0 0 0.84,0.48a6.58,6.58 0 0 0 6.58,-4.91a10.21,10.21 0 0 0 -2,-8.85a8.89,8.89 0 0 0 -7.53,-3.6a7.56,7.56 0 0 0 -6.38,4.15c-0.91,2.09 0.21,5.92 3.08,5.12a1,1 0 0 0 0.75,-1a3.23,3.23 0 0 0 -1.26,-2.8c-0.91,-0.71 -2.22,0.49 -1.31,1.31a1.52,1.52 0 0 1 0.55,1.49l0.74,-1c-0.84,0.17 -0.94,-1.48 -0.82,-2a4.43,4.43 0 0 1 2.15,-2.51a6.24,6.24 0 0 1 6.6,0.28a8.68,8.68 0 0 1 3.74,6.58c0.17,2.93 -1.71,5.94 -4.91,5.74l0.85,0.48c-0.3,-0.66 1.08,-0.52 1.27,-0.43a2.62,2.62 0 0 1 0.95,1.13a10.92,10.92 0 0 1 1.1,3.15a8.33,8.33 0 0 1 -0.85,6.07a5.37,5.37 0 0 1 -4.36,2.73a4.11,4.11 0 0 1 -4,-2.85l-1.83,0.5c2.29,6 -4.19,11.53 -9.89,11.14a6.82,6.82 0 0 1 -6.22,-4.57c-0.74,-2.28 -0.38,-5.11 1.62,-6.66l-1.31,-0.75a5,5 0 0 1 -1.2,3.25l1,-0.13c-4.12,-1.8 -4.21,-8.07 -2.85,-11.67c1.57,-4.16 6.65,-6.81 10.57,-3.93c0.55,0.4 1.24,-0.5 0.73,-0.95l0.08,0.05z"/>
  <path id="svg_121" d="m714.86,679.9a6.35,6.35 0 0 0 6.85,5.06a6.57,6.57 0 0 0 5.59,-6.76l-1.38,0.57c1.22,1.39 2.87,2.84 4.79,3.06c2.14,0.25 3.46,-1.41 4,-3.31c1,-3.61 -0.32,-8.21 -3.54,-10.31c-0.79,-0.51 -1.64,0.63 -1,1.28c2.07,2.07 3.44,4.61 3.06,7.64c-0.18,1.38 -0.76,3.32 -2.52,3a7.08,7.08 0 0 1 -3.63,-2.51a0.82,0.82 0 0 0 -1.38,0.57a5,5 0 0 1 -4.22,5.28a5.23,5.23 0 0 1 -5.36,-3.92a0.64,0.64 0 0 0 -1.24,0.34l-0.02,0.01z"/>
  <path id="svg_122" d="m712,761.33a5.44,5.44 0 0 1 2.23,-5.08a5.13,5.13 0 0 1 5.74,0.16c0.63,0.42 1.51,-0.43 1.06,-1.06a7.46,7.46 0 0 1 -0.32,-7.67a13.72,13.72 0 0 1 6.07,-5.58c1.16,-0.62 2.64,-1.51 4,-1.43s1.92,1.71 2.2,2.93c0.74,3.2 1.37,6.44 2.05,9.65c0.21,1 1.81,0.78 1.81,-0.24a4,4 0 0 1 4.35,-4.06a4.12,4.12 0 0 1 2.63,1.45c0.67,0.83 0.9,1.94 1.61,2.76a3.74,3.74 0 0 0 2.38,1.21c1,0.13 2.18,-0.16 3.16,0.18a1.79,1.79 0 0 1 1,2.4a1.85,1.85 0 0 1 -2.77,0.32a0.9,0.9 0 0 0 -1.27,1.27c2,2.05 5.81,1.09 6.12,-1.92a3.78,3.78 0 0 0 -1.49,-3.42c-1.47,-1.05 -3.11,-0.36 -4.71,-0.76s-2,-2.79 -3.15,-3.86a6.08,6.08 0 0 0 -4,-1.55a5.89,5.89 0 0 0 -5.66,6l1.81,-0.25l-1.41,-6.52a23.62,23.62 0 0 0 -1.27,-5c-1.61,-3.49 -5.18,-2.27 -7.87,-0.88c-3,1.55 -5.86,3.77 -7.23,6.93a8.9,8.9 0 0 0 0.67,8.8l1.07,-1.06c-4.62,-3 -11,0.82 -9.92,6.42a0.59,0.59 0 0 0 1.16,-0.16l-0.05,0.02z"/>
  <path id="svg_123" d="m697.43,716.74c2.1,-4.64 -1.13,-10.75 -6.29,-11.36c-5.48,-0.64 -10,5.39 -8.46,10.52l1.38,-0.8a14.09,14.09 0 0 0 -8.47,-5c-3.59,-0.48 -5.72,1.83 -7.46,4.64s-3.78,6.17 -3.52,9.7c0.19,2.71 1.71,5.56 4.39,6.51c2.39,0.86 6.43,-1.16 4.79,-4.08a0.93,0.93 0 0 0 -1.72,0.47c-0.09,5 4.77,9.31 9.73,8.31c4.58,-0.93 7.48,-6.23 6.07,-10.61a0.92,0.92 0 0 0 -1.78,0.49c1.14,4.92 7.14,7.74 11.71,5.66c4.78,-2.18 6.28,-8.69 3.65,-13c-0.61,-1 -2.22,-0.09 -1.6,0.93c2.06,3.4 1,8.56 -2.71,10.37a6.82,6.82 0 0 1 -9.27,-4.42l-1.78,0.49a6.65,6.65 0 0 1 -4.47,8.27c-3.9,1 -7.78,-2.6 -7.71,-6.46l-1.71,0.46c0.71,1.27 -1.8,1.7 -2.56,1.45a4.81,4.81 0 0 1 -2.67,-2.66c-1.33,-2.93 -0.1,-6.1 1.36,-8.73s3.14,-6.28 6.62,-6.09c3.06,0.17 6,2.28 7.94,4.5a0.83,0.83 0 0 0 1.38,-0.8c-1.32,-4.07 2.21,-9 6.62,-8.67c4.22,0.35 7.13,5.51 5.47,9.32c-0.31,0.72 0.74,1.36 1.07,0.63l0,-0.04z"/>
  <path id="svg_124" d="m661.13,691.58a1.29,1.29 0 0 0 -1.12,1.63a1.67,1.67 0 0 0 1.86,1.3a6.77,6.77 0 0 0 2.55,-0.79a5.83,5.83 0 0 0 1.9,-1.35a2.77,2.77 0 0 0 0.71,-2.53a0.69,0.69 0 0 0 -0.84,-0.48l-2.22,0.82a0.7,0.7 0 1 0 0.37,1.34l2.21,-0.83l-0.85,-0.48a0.58,0.58 0 0 1 0,0.14a1.13,1.13 0 0 1 0,0.26c0,0.09 0,0.09 0,0a0.5,0.5 0 0 1 0,0.12l-0.06,0.19c0,0.07 0,0.07 0,0l-0.06,0.11a1.71,1.71 0 0 1 -0.13,0.23l-0.08,0.11l-0.16,0.18a5.75,5.75 0 0 1 -1.77,1.17a7.5,7.5 0 0 1 -1,0.39a1.65,1.65 0 0 1 -1.05,0.09l-0.08,0l-0.08,-0.07s0,0 0,0a0.31,0.31 0 0 1 0,-0.1c0,0.07 0,0.06 0,0a0.43,0.43 0 0 1 0,-0.11s0,-0.19 0,0c0,0 0.06,-0.24 0,-0.1a0.35,0.35 0 0 1 0.05,-0.08c-0.05,0.06 -0.05,0.06 0,0a0.18,0.18 0 0 1 -0.09,0.06c0.06,0 0.06,0 0,0a0.6,0.6 0 0 0 0.58,-0.58a0.58,0.58 0 0 0 -0.58,-0.57l-0.06,-0.07z"/>
  <path id="svg_125" d="m657.72,756.64a6.71,6.71 0 0 1 7.46,-1.15a6.15,6.15 0 0 1 1.64,1.13c0.51,0.51 0.83,1.23 1.42,1.63a1.4,1.4 0 0 0 1.93,-0.17a1.24,1.24 0 0 0 -0.26,-1.94c-1,-0.52 -1.85,1.05 -0.86,1.49c-0.34,-0.4 -0.3,-0.62 0.11,-0.69l-0.08,-0.06a3.87,3.87 0 0 0 -0.33,-0.4a8.67,8.67 0 0 0 -0.62,-0.74a7.31,7.31 0 0 0 -1.33,-1.08a8.22,8.22 0 0 0 -3.44,-1.16a7.61,7.61 0 0 0 -6.51,2.27a0.62,0.62 0 0 0 0.87,0.87z"/>
  <path id="svg_127" d="m108.65,548.11c-4,2.45 -2.41,8.38 1.55,9.9c4.13,1.57 8.33,-2.77 7.08,-6.87a0.89,0.89 0 0 0 -1.72,0.48c0.71,3.82 3.91,7.15 8,6.61a5.41,5.41 0 0 0 4.2,-7.9l-1.65,1c1.66,2.18 4.4,4.94 7.34,3.11c2.35,-1.45 1.66,-4.49 2.93,-6.57c0.77,-1.25 1.82,-2 1.9,-3.58a4.41,4.41 0 0 0 -1.28,-3.29a4.14,4.14 0 0 0 -6.38,1.07a0.86,0.86 0 0 0 1.48,0.86c1.13,-1.64 3.82,-1.49 4.22,0.66c0.32,1.73 -1.56,2.84 -2.12,4.38c-0.49,1.35 -0.42,3 -1.2,4.23c-1.54,2.44 -4.21,-0.49 -5.24,-1.83c-0.72,-0.94 -2.27,-0.13 -1.65,1c1.45,2.54 -0.89,5.2 -3.54,5.12c-2.92,-0.09 -4.74,-2.65 -5.31,-5.28l-1.72,0.48c0.93,2.71 -1.79,5.78 -4.62,4.91s-4.4,-5.33 -1.65,-7.32c0.65,-0.47 0.06,-1.54 -0.64,-1.1l0.02,-0.07z"/>
  <path id="svg_128" d="m114.64,600.43c-1.64,0.2 -3.78,-2.15 -4.8,-3.3c-1.25,-1.39 -2.27,-3.32 -1.75,-5.23c0.47,-1.71 2.1,-2.69 3.6,-3.39s4.62,-2.07 5.22,0.24c0.26,1 1.6,0.69 1.71,-0.23c0.37,-3.27 6,-5.81 8.68,-4c3.5,2.38 2.08,7.27 0.92,10.5c-0.3,0.82 0.72,1.47 1.4,1.08c1.83,-1 3.61,0.72 3.91,2.48a7.49,7.49 0 0 1 -1.4,5.29a9.63,9.63 0 0 1 -8.69,4.15l1,1.27l0.47,-0.35l-1.24,-1.24c-0.91,2.67 -3.83,3.73 -6.36,4.27c-2.79,0.58 -7.07,1.27 -9.15,-1.23c-0.8,-1 -1,-2.69 0.1,-3.55c0.08,-0.06 0.83,-0.49 1,-0.25s-0.64,0.56 -0.84,0.57a2.4,2.4 0 0 1 -1.83,-0.94c-2.13,-2.51 0.84,-7.31 3.29,-8.55a0.9,0.9 0 0 0 -0.69,-1.63c-2,0.65 -3.21,2.35 -4.15,4.12s-1.62,4.13 -0.74,6.14a4.74,4.74 0 0 0 4,2.88c1.66,0.05 3.67,-1.41 3,-3.26c-0.6,-1.6 -2.69,-1.65 -3.94,-0.85a4.38,4.38 0 0 0 -1.74,4.41c0.88,4.71 6.68,4.9 10.38,4.42c3.91,-0.5 8.32,-1.91 9.71,-6c0.27,-0.82 -0.55,-1.35 -1.25,-1.25a2.21,2.21 0 0 0 -1.87,1.77a1,1 0 0 0 1,1.27a11.59,11.59 0 0 0 11.33,-6.92c0.95,-2.26 1.22,-5.17 -0.3,-7.26a4.51,4.51 0 0 0 -5.81,-1.4l1.41,1.08c0.91,-2.58 1.74,-5.37 1.13,-8.13a6.9,6.9 0 0 0 -3.85,-4.93c-4,-1.63 -10,1.73 -10.47,6l1.71,-0.23c-1.47,-5.44 -10.35,-0.92 -11.76,2.44c-1,2.32 0,4.91 1.48,6.75a19.09,19.09 0 0 0 3.24,2.91c1,0.76 1.94,1.4 3.24,1.12c0.59,-0.12 0.47,-1.15 -0.15,-1.08l-0.15,0.04z"/>
  <path id="svg_129" d="m59.33,582.78a2.42,2.42 0 0 0 1.46,2.9a3.82,3.82 0 0 0 3.8,-0.9a6.08,6.08 0 0 0 1.46,-7.1c-0.38,-0.84 -1.73,-0.24 -1.47,0.62c0.86,2.92 2.54,6.85 6.3,6.42c3.47,-0.4 5.24,-4.89 5.32,-7.9l-1.72,0.23c1.42,3.47 6.91,3.48 7.83,-0.4c0.48,-2.06 -0.57,-4.18 -1.85,-5.73a13.66,13.66 0 0 0 -5.9,-4.19c-1,-0.3 -1.45,1 -0.66,1.57c2.59,1.69 5.9,3.21 6.64,6.56a2.31,2.31 0 0 1 -1.53,3a2.49,2.49 0 0 1 -2.84,-1.24a0.88,0.88 0 0 0 -1.72,0.24a7.92,7.92 0 0 1 -1,3.85c-0.58,1 -1.51,2.22 -2.75,2.36c-2.76,0.31 -3.89,-3.13 -4.52,-5.16l-1.47,0.62a4.5,4.5 0 0 1 -0.19,4.07a3.81,3.81 0 0 1 -1.6,1.58c-0.81,0.41 -2.53,0.34 -2.27,-1a0.66,0.66 0 0 0 -1.27,-0.35l-0.05,-0.05z"/>
  <path id="svg_130" d="m61.74,642.66c-3.88,-1.17 -4.74,-5.62 -3.69,-9.08c0.48,-1.59 1.31,-3.43 2.82,-4.3a2.87,2.87 0 0 1 2.78,-0.15a1.72,1.72 0 0 1 0.58,2.42l1.44,0c-3,-4.46 2.62,-9.4 7,-9.1c4.07,0.28 7,5.47 4.19,8.84a0.93,0.93 0 0 0 1.32,1.32a2.85,2.85 0 0 1 3.6,0a3.87,3.87 0 0 1 1.22,4.25c-0.94,3.59 -4.59,5.34 -7.59,6.94l1.34,1.34c0.34,-0.47 1.17,-0.12 1.46,0.22c0.56,0.64 0.22,1.65 -0.15,2.3a6.19,6.19 0 0 1 -3.41,2.54a12.6,12.6 0 0 1 -3.9,0.64a12.79,12.79 0 0 1 -4.23,-0.34a2,2 0 0 1 -0.94,-0.55c0.06,0.08 -0.6,-1.24 0,-1a4.15,4.15 0 0 1 -0.29,1.42a3.41,3.41 0 0 1 -3.29,2.04c-3.28,-0.11 -4.54,-3.74 -3.14,-6.35a1,1 0 0 0 -1.7,-1c-2.15,3.64 -0.3,8.61 4.06,9.3a5.39,5.39 0 0 0 5.08,-1.91c0.92,-1.12 2.12,-4 0.68,-5.15a2.38,2.38 0 0 0 -3.68,1.59c-0.34,2.07 1.65,3.44 3.44,3.75c3.94,0.69 8.92,0.37 11.94,-2.57c1.5,-1.45 2.67,-4.22 1,-6a3,3 0 0 0 -4.64,0.1c-0.61,0.84 0.54,1.77 1.34,1.34c4,-2.18 9.2,-5.21 8.65,-10.59c-0.39,-3.78 -5.16,-6.52 -8.2,-3.61l1.32,1.32c3.71,-4.48 0.44,-11.39 -5.17,-12a9.36,9.36 0 0 0 -7.82,3.21c-2,2.33 -2.78,5.9 -0.93,8.53a0.84,0.84 0 0 0 1.44,0a3.41,3.41 0 0 0 -2.08,-5c-2.58,-0.7 -4.87,1.18 -6,3.33c-2.37,4.52 -1.91,11.57 3.82,13.17a0.63,0.63 0 0 0 0.33,-1.21z"/>
  <path id="svg_131" d="m33.15,634.75a3.06,3.06 0 0 0 3.17,-1.47a3.14,3.14 0 0 0 -0.48,-3.57a0.71,0.71 0 0 0 -0.72,-0.19a2.65,2.65 0 0 0 -1.65,1.88a0.79,0.79 0 0 0 0.53,0.94a0.78,0.78 0 0 0 0.94,-0.54a1.8,1.8 0 0 1 0.06,-0.22l0,-0.11l0,0.08a0.64,0.64 0 0 1 0.11,-0.2s0.14,-0.2 0.07,-0.12s0.08,-0.08 0.09,-0.09l0.1,-0.09l0.11,-0.08l0.21,-0.1l-0.9,-0.12l0.12,0.13c0.12,0.13 -0.08,-0.12 0,0a2.75,2.75 0 0 1 0.17,0.29c0.07,0.13 0,-0.13 0,0a1,1 0 0 1 0.05,0.16c0,0.1 0,0.2 0.07,0.3s0,0 0,-0.05a0.28,0.28 0 0 0 0,0.09l0,0.33c0,0.07 0,0.15 0,0c0,0.11 0,0.22 -0.07,0.33l-0.06,0.16c0.06,-0.16 0,0 0,0a2.2,2.2 0 0 1 -0.18,0.28c0.06,-0.08 0,0 0,0l-0.11,0.12l-0.13,0.11c-0.05,0 -0.09,0.07 0,0a1.67,1.67 0 0 1 -0.28,0.18l-0.15,0.07c0.13,-0.07 0,0 0,0l-0.32,0.08s-0.19,0 0,0l-0.16,0a1.79,1.79 0 0 1 -0.33,0a0.64,0.64 0 0 0 -0.18,1.26l-0.08,0.16z"/>
  <path id="svg_132" d="m46.59,703.61a11.7,11.7 0 0 1 -5.59,-9.44c0,-1.53 0.33,-3.82 2.12,-4.22c1.95,-0.43 3.57,1.89 4.48,3.27c0.52,0.78 1.87,0.31 1.57,-0.66a9.58,9.58 0 0 1 4.61,-10.87c2.24,-1.21 5.29,-1.51 6.22,1.37a12.17,12.17 0 0 1 -0.62,8.72a1,1 0 0 0 1.53,1.22a10.63,10.63 0 0 1 4.4,-2.56c1,-0.29 1.82,-0.45 2.3,0.7a5.23,5.23 0 0 1 0.35,2.22c-0.1,3.17 -2.4,6 -4.67,8l1.46,1.45c1.3,-1.49 2.91,0.34 2.8,1.82c-0.16,1.94 -2,3.28 -3.46,4.23a9.07,9.07 0 0 1 -5.21,1.69c-0.56,0 -1.12,-0.4 -1.62,-0.43l-0.3,0.17a0.81,0.81 0 0 1 0.41,0a1.63,1.63 0 0 1 1,1.44a3.88,3.88 0 0 1 -1.92,3.47a5.36,5.36 0 0 1 -4.91,-0.14c-3.33,-1.57 -5.42,-4.94 -6.37,-8.39a1,1 0 0 0 -2,0.55c1,4.51 4.38,9.05 9,10.33a6.7,6.7 0 0 0 6,-0.93a6,6 0 0 0 2.36,-5a3.5,3.5 0 0 0 -3.3,-3.46a2,2 0 0 0 -1.64,3.22c1.44,1.76 4.52,1.49 6.43,0.87a13.93,13.93 0 0 0 6.23,-4.06c1.48,-1.79 2.15,-4.63 0.54,-6.58a3.62,3.62 0 0 0 -5.41,-0.23a1,1 0 0 0 1.46,1.45c3.13,-2.78 6.09,-7.06 5,-11.46c-0.5,-2.09 -1.79,-3.42 -4,-3a12.14,12.14 0 0 0 -6.2,3.34l1.52,1.17a14.11,14.11 0 0 0 0.49,-10.88c-1.24,-3.14 -4.48,-3.66 -7.4,-2.57a11.26,11.26 0 0 0 -6.72,13.57l1.57,-0.66c-1.23,-1.8 -3,-4.05 -5.4,-4.09s-3.74,2 -4.12,4c-0.87,4.88 2.26,10 6.37,12.41a0.64,0.64 0 0 0 0.64,-1.11l0,0.06z"/>
  <path id="svg_133" d="m119.76,680.65c-2.81,1 -5.46,-0.82 -6.62,-3.35a12.13,12.13 0 0 1 -0.64,-7.68c0.56,-2.26 1.91,-4.48 4.19,-5.3c2,-0.74 4.66,-0.38 5.93,1.53c0.47,0.7 1.75,0.5 1.7,-0.46c-0.15,-3.2 1.82,-6.62 5.33,-6.66c4.18,0 5.13,4.23 4.4,7.58c-0.39,1.79 -1.29,3.57 -1.48,5.39c-0.16,1.48 1,1.94 2.24,1.82a3,3 0 0 1 3.12,2.21a4.7,4.7 0 0 1 -0.81,4.34a14.46,14.46 0 0 1 -4.56,4a3.49,3.49 0 0 1 -3.11,0.56c-0.73,-0.31 -1.26,-1.36 -0.38,-1.86l-1.3,-0.16c1.44,1.17 1.27,3.11 0.48,4.64a6.88,6.88 0 0 1 -4.74,3.33a6.07,6.07 0 0 1 -7.38,-6.67c0.15,-1.22 -1.95,-1.52 -2.16,-0.3c-1,5.91 4.74,10.38 10.31,9a8.87,8.87 0 0 0 6.12,-4.9c1,-2.23 0.9,-5 -1.11,-6.68a1.1,1.1 0 0 0 -1.3,-0.16a3.1,3.1 0 0 0 -0.8,4.65c1.48,1.77 4,1.58 5.87,0.64c3.67,-1.83 8.17,-6 7,-10.56a5.62,5.62 0 0 0 -3.5,-4a4.09,4.09 0 0 0 -1.3,-0.19a2,2 0 0 0 -0.73,0.07l-0.14,0c-0.29,0 -0.23,0.13 0.19,0.39a36.91,36.91 0 0 0 1.24,-4.4c1,-4.17 0.27,-9.61 -4.74,-10.56s-8.86,3.65 -8.59,8.44l1.7,-0.46a6.74,6.74 0 0 0 -7.37,-2.5a8.63,8.63 0 0 0 -5.88,6.38a13.34,13.34 0 0 0 1,9.84c1.62,2.76 5,4.59 8.12,3.33c0.81,-0.33 0.48,-1.64 -0.36,-1.33l0.06,0.04z"/>
  <path id="svg_134" d="m167.39,622a2.68,2.68 0 0 0 -2.31,-2.09a4.32,4.32 0 0 0 -3.5,1.45a17.33,17.33 0 0 0 -4.87,8.92c-0.55,2.85 0,6.23 2.85,7.7a4.18,4.18 0 0 0 6.06,-2.66c0.16,-0.81 -0.84,-1.59 -1.49,-0.87a6.16,6.16 0 0 0 -1,6.61a6.55,6.55 0 0 0 6.08,4c6.37,0.12 9.72,-6.35 9,-12l-1.8,0.48c3.77,5.28 10.88,-1.5 11.56,-5.88c0.46,-3 -2.11,-5.09 -4.24,-6.69s-4.95,-2.32 -7,-0.35a1,1 0 0 0 -0.16,1.2a2.39,2.39 0 0 0 3.1,0.94a6.28,6.28 0 0 0 2.62,-3.18c1.24,-2.62 1.28,-5.92 -1.36,-7.69a6.73,6.73 0 0 0 -7.09,0c-2.64,1.63 -4,4.65 -4.6,7.58c-0.26,1.27 1.67,1.82 2,0.54c0.72,-3.29 2.7,-7.5 6.73,-7.06a3.32,3.32 0 0 1 3.23,3.05a5.89,5.89 0 0 1 -0.77,3c-0.17,0.35 -1.53,2.84 -2.09,1.88l-0.16,1.2c1.58,-1.49 3.75,-0.08 5.08,1s3.24,2.52 2.84,4.5a9.65,9.65 0 0 1 -3.12,4.64c-1.21,1.11 -3.6,2.1 -4.82,0.4c-0.48,-0.67 -1.93,-0.57 -1.79,0.49c0.56,4.27 -1.21,9.29 -6,10a5,5 0 0 1 -5.14,-2.11a4.47,4.47 0 0 1 0.21,-5.26l-1.5,-0.87c-0.39,2.21 -3,2.36 -4.4,1c-1.6,-1.55 -1.55,-4 -1.06,-6a16.9,16.9 0 0 1 2.7,-5.76a9.27,9.27 0 0 1 2.16,-2.34c0.94,-0.65 2.6,-0.89 3,0.53c0.19,0.72 1.24,0.41 1.11,-0.3l-0.06,0z"/>
  <path id="svg_135" d="m174.12,569.21c-5.08,-1.56 -10.88,2.45 -10.09,8a7.35,7.35 0 0 0 4.09,5.71c1.93,0.86 5,0.33 5.08,-2.21c0,-1.13 -1.65,-1.1 -1.74,0a8.23,8.23 0 0 0 2.53,7a6.16,6.16 0 0 0 6.4,1.14c5.45,-2.32 5,-9.05 3.2,-13.62a1,1 0 0 0 -1.16,-0.65c-2,0.56 -1.75,3.12 -0.41,4.24c1.57,1.31 3.87,0.95 5.44,-0.16a6.18,6.18 0 0 0 2.25,-6.13a13,13 0 0 0 -3.53,-7.24c-1.6,-1.47 -4.31,-2.2 -6.12,-0.64c-1.47,1.26 -1.76,3.92 0,5.11s4.14,-0.09 4.89,-1.92c1,-2.35 -0.78,-4.64 -2.65,-5.9c-2.4,-1.61 -5.64,-2.41 -8.36,-1.17a7.39,7.39 0 0 0 -4.27,6.27c-0.09,1.3 1.92,1.29 2,0a5.34,5.34 0 0 1 2.67,-4.18a6,6 0 0 1 5.52,0.09c1.38,0.61 3.73,2.07 3.28,3.91c-0.15,0.6 -0.82,1.42 -1.52,1.39c-1,0 -0.92,-1.26 -0.51,-1.84c1.25,-1.76 3.71,0.06 4.55,1.23a11.94,11.94 0 0 1 2.21,5.55a4,4 0 0 1 -1.87,4.15a2.9,2.9 0 0 1 -2.05,0.38c-0.29,-0.07 -1.68,-1.14 -1,-1.33l-1.15,-0.66c1.42,3.55 2.38,8.64 -1.46,11.09a4.3,4.3 0 0 1 -5.2,-0.5a6.55,6.55 0 0 1 -1.92,-5.63l-1.74,0c0,0.94 -1.44,1 -2.11,0.85a4.36,4.36 0 0 1 -2,-1.18a6.06,6.06 0 0 1 -1.75,-4.69c0.26,-4 4.61,-6.16 8.21,-5.33a0.59,0.59 0 0 0 0.31,-1.13l-0.02,0z"/>
  <path id="svg_136" d="m168.38,546l2.86,-0.41a0.62,0.62 0 0 0 0.39,-0.3a0.66,0.66 0 0 0 0.07,-0.5a0.69,0.69 0 0 0 -0.3,-0.39a0.81,0.81 0 0 0 -0.51,-0.06l-2.86,0.41a0.65,0.65 0 0 0 -0.39,0.3a0.67,0.67 0 0 0 -0.06,0.5a0.65,0.65 0 0 0 0.3,0.39a0.72,0.72 0 0 0 0.5,0.06z"/>
  <path id="svg_137" d="m229.41,638.21c-2.66,-2.79 -6.94,-1.25 -8.87,1.57s-3.27,8.26 -0.45,10.87a0.91,0.91 0 0 0 1.53,-0.63c0,-1.22 -1.1,-1.73 -2.18,-1.54a4.29,4.29 0 0 0 -2.75,2.42a6.8,6.8 0 0 0 1.2,8.16c2.52,2.37 5.82,2.28 8.78,0.82c2.5,-1.23 6.09,-3.86 4,-7a1,1 0 0 0 -1.71,0a4,4 0 0 0 1.53,5a5.81,5.81 0 0 0 5.8,0.32a6.18,6.18 0 0 0 1.25,-10.24a1,1 0 0 0 -1.58,1.22c1.23,2.3 4.37,1.83 5.66,-0.14c1.66,-2.56 0.7,-5.94 -0.69,-8.39s-3.39,-5 -6.15,-6a5.16,5.16 0 0 0 -6.3,2.29a0.93,0.93 0 0 0 1.61,0.93a3.5,3.5 0 0 1 4.14,-1.24a8.92,8.92 0 0 1 4,3.58a10.08,10.08 0 0 1 2.21,5.51a3.39,3.39 0 0 1 -0.86,2.58a1.18,1.18 0 0 1 -1.89,-0.16l-1.58,1.22a4.2,4.2 0 0 1 0,6.58a4.35,4.35 0 0 1 -3.4,0.79c-1.15,-0.26 -2.72,-1.55 -2.09,-2.88l-1.62,0c1.27,1.93 -1.56,3.43 -2.92,4.14c-1.83,1 -3.8,1.48 -5.72,0.46a4.76,4.76 0 0 1 -2.61,-4.25a5.07,5.07 0 0 1 0.66,-2.52a3.87,3.87 0 0 1 0.79,-1a1,1 0 0 1 0.51,-0.34c0.29,0 0.34,0 0.14,-0.27l1.54,-0.64c-2.08,-1.87 -0.91,-6 0.2,-8.15c1.25,-2.38 4.58,-4.35 6.89,-2.07a0.68,0.68 0 0 0 1,-0.95l-0.07,-0.05z"/>
  <path id="svg_138" d="m178.86,701.7c-4.27,0.38 -3.55,-5.48 -2.41,-7.91c0.52,-1.11 1.46,-2.49 2.87,-2.26s2.22,1.82 2.84,3a0.91,0.91 0 0 0 1.68,-0.45a4.27,4.27 0 0 1 3,-4.2a4.76,4.76 0 0 1 4.84,1.33c3.14,3.07 2.08,7.82 -0.43,10.92a1,1 0 0 0 1,1.71c2.06,-0.59 2.68,2 2.46,3.47a8.86,8.86 0 0 1 -2,4.33a9.56,9.56 0 0 1 -3.63,2.66a5.89,5.89 0 0 1 -2.4,0.52c-0.83,0 -2,-0.69 -1.29,-1.62s-0.88,-2.2 -1.68,-1.29c-2.14,2.4 -6.27,3.34 -8.83,1a5.42,5.42 0 0 1 0.12,-7.91c0.83,-0.75 -0.29,-2.25 -1.22,-1.57c-3.43,2.48 -3.48,7.94 -0.53,10.85c3.31,3.26 9,2.43 12,-0.89l-1.68,-1.3c-1.67,2.3 0.8,4.78 3.14,4.82c2.71,0.06 5.49,-1.61 7.27,-3.55a10.23,10.23 0 0 0 2.89,-7.54c-0.25,-2.52 -2.45,-4.74 -5.1,-4l1,1.71c3.36,-4.2 4.42,-10.76 -0.38,-14.4a6.48,6.48 0 0 0 -6.68,-0.84a6,6 0 0 0 -3.71,5.71l1.68,-0.45c-1,-1.7 -2.3,-3.66 -4.44,-3.78s-3.54,1.57 -4.32,3.31a9.67,9.67 0 0 0 -0.66,6.84a4.33,4.33 0 0 0 4.73,3c0.7,-0.11 0.54,-1.31 -0.17,-1.25l0.04,0.03z"/>
  <path id="svg_139" d="m108.44,743.45c-1.18,1 -2.85,-0.12 -3.13,-1.41a5.31,5.31 0 0 1 1.31,-4.12c1.6,-2 4.69,-3.19 6.73,-1.06a0.91,0.91 0 0 0 1.54,-0.64c0.41,-3.49 3.46,-7.63 7.32,-5.38c4.25,2.48 3.54,8 2.77,12.1c-0.18,0.91 1,1.88 1.73,1c1.13,-1.37 3.38,-0.79 4.17,0.68c1.26,2.32 -0.62,5 -2.4,6.45a25.77,25.77 0 0 1 -6.59,3.61a3.77,3.77 0 0 1 -3.2,0c-0.85,-0.5 -1.15,-2 0.07,-2.17l-1.24,-0.5c0.79,1.78 -1.63,2.86 -2.93,3.18a10.81,10.81 0 0 1 -5,0.22a4,4 0 0 1 -3.16,-2.47a2.72,2.72 0 0 1 0.75,-3.24c1.1,-0.73 0.1,-2.5 -1,-1.79a4.64,4.64 0 0 0 -1.9,5.17a6.1,6.1 0 0 0 4.79,4.42c3.85,0.89 12.94,-0.75 10.35,-6.6a1.11,1.11 0 0 0 -1.24,-0.51a3.18,3.18 0 0 0 -2.43,3.37a3.8,3.8 0 0 0 2.88,3.25a7.38,7.38 0 0 0 5.23,-0.86a34.3,34.3 0 0 0 5.66,-3.2c2.77,-2.08 5.18,-6.13 3.13,-9.54c-1.48,-2.46 -5.45,-3.34 -7.4,-1l1.74,1c1,-5.24 1.34,-12.39 -4.64,-14.81c-5.14,-2.08 -8.85,3 -9.26,7.54l1.55,-0.64c-3.4,-3.39 -8.51,-0.92 -10.28,2.89c-0.85,1.82 -1.08,4.27 0.53,5.76a3.26,3.26 0 0 0 4.47,0.13c0.6,-0.58 -0.3,-1.45 -0.91,-0.91l-0.01,0.08z"/>
  <path id="svg_140" d="m74.21,750.33l0.41,0a0.59,0.59 0 0 0 0.23,-0.05a0.46,0.46 0 0 0 0.2,-0.13a0.44,0.44 0 0 0 0.13,-0.2a0.39,0.39 0 0 0 0,-0.24l0,-0.16a0.61,0.61 0 0 0 -0.16,-0.28l-0.12,-0.09a0.59,0.59 0 0 0 -0.31,-0.09l-0.41,0a0.48,0.48 0 0 0 -0.24,0.06a0.56,0.56 0 0 0 -0.34,0.33a0.6,0.6 0 0 0 0,0.24l0,0.17a0.67,0.67 0 0 0 0.16,0.27l0.13,0.1a0.59,0.59 0 0 0 0.32,0.09l0,-0.02z"/>
  <path id="svg_141" d="m195,753.52a4.8,4.8 0 0 1 -5.33,-1.47a5.83,5.83 0 0 1 -0.27,-6.51c1.14,-2 3.38,-3.4 5.67,-2.42c1.95,0.84 3.39,2.77 4.51,4.5c0.46,0.71 1.78,0.5 1.71,-0.46a8.38,8.38 0 0 1 1.09,-5.12c0.94,-1.52 2.73,-3 4.51,-1.83s4.11,6 1.47,7.57l1.51,1.15c0.16,-0.44 0.42,-1.4 0.95,-1.52s0.82,0.8 0.9,1.32a7.32,7.32 0 0 1 -0.38,3.53a12.4,12.4 0 0 1 -3.88,5.38a15.28,15.28 0 0 1 -11.86,3.26c-1.18,-0.15 -1.47,1.89 -0.28,2.09a16.89,16.89 0 0 0 16.11,-6.51c1.87,-2.53 3.09,-6 2.1,-9.09c-0.42,-1.35 -1.4,-2.38 -2.92,-2.08s-2.23,1.73 -2.72,3.08c-0.31,0.86 0.78,1.59 1.51,1.16c4.08,-2.42 1.71,-9.18 -1.65,-11.14c-2.2,-1.29 -4.69,-0.33 -6.22,1.52a9.52,9.52 0 0 0 -2,7.47l1.67,-0.71c-1.64,-2.23 -3.57,-4.87 -6.46,-5.5s-5.64,1.28 -6.9,3.84a7.35,7.35 0 0 0 0.61,7.83a6.2,6.2 0 0 0 6.94,1.94c0.77,-0.31 0.45,-1.58 -0.35,-1.28l-0.04,0z"/>
  <path id="svg_142" d="m252.75,706.18c1.17,-4.53 -2.35,-9.51 -7.31,-8.24a5.08,5.08 0 0 0 -1.06,9.5c1,0.45 1.94,-1 0.9,-1.53c-7,-3.39 -11.73,6.63 -9.87,12.19a7.26,7.26 0 0 0 6.42,5.12a5.62,5.62 0 0 0 5.67,-5.22a1,1 0 0 0 -1.79,-0.48a5.18,5.18 0 0 0 1.66,6.21a8,8 0 0 0 7.38,1.28a8.25,8.25 0 0 0 5.28,-5.07c0.68,-1.86 1.15,-5.53 -1.24,-6.37a1,1 0 0 0 -1.18,0.67a3.42,3.42 0 0 0 3.24,4c2.25,0.12 4.12,-1.71 5.11,-3.56a10.31,10.31 0 0 0 -1.86,-12a1,1 0 0 0 -1.65,0.44a2.47,2.47 0 0 0 4.44,1.79c1.69,-2 0.69,-5 -1.08,-6.62c-4.8,-4.29 -12,0.08 -15.38,4.09c-0.85,1 0.61,2.48 1.46,1.46c2.14,-2.57 5.29,-5 8.74,-5.22a4.92,4.92 0 0 1 4.4,1.78a3.13,3.13 0 0 1 0.71,2.16a1.77,1.77 0 0 1 -0.35,1c-0.15,0.19 -1.12,0.7 -1,0.07l-1.66,0.44a8.29,8.29 0 0 1 2.28,7.55a7,7 0 0 1 -1.8,3.54a3.12,3.12 0 0 1 -2.16,1.1c-0.8,0 -1.74,-0.71 -1.56,-1.59l-1.18,0.67c0.46,0.17 0.35,1.81 0.32,2.16a6.65,6.65 0 0 1 -0.61,2.28a6.36,6.36 0 0 1 -8.91,2.76c-1.29,-0.85 -2.46,-2.57 -1.71,-4.13l-1.79,-0.49a3.7,3.7 0 0 1 -4.32,3.26a5.6,5.6 0 0 1 -4.29,-4.38a9.69,9.69 0 0 1 1.25,-6.75c1.22,-2.07 3.69,-3.77 6.11,-2.61l0.9,-1.53c-3.23,-1.39 -2.39,-5.91 0.87,-6.6c3.86,-0.83 6.27,3.15 5.49,6.56a0.58,0.58 0 0 0 1.11,0.31l0.02,0z"/>
  <path id="svg_143" d="m266.26,668.66a4.1,4.1 0 0 0 1.72,4.55a3.92,3.92 0 0 0 5,-0.7a4.1,4.1 0 0 0 1.17,-2.9c0,-1 -1.58,-1 -1.54,0a2.8,2.8 0 0 1 -3,2.76a2.93,2.93 0 0 1 -2.25,-3.4a0.58,0.58 0 0 0 -1.11,-0.31l0.01,0z"/>
  <path id="svg_144" d="m218.78,596.14c-2,3.49 0.38,8.61 4.4,9.19a0.74,0.74 0 1 0 0.2,-1.45c-3.13,-0.38 -5.08,-4.46 -3.64,-7.18a0.56,0.56 0 0 0 -1,-0.56l0.04,0z"/>
  <path id="svg_145" d="m279,752.42c-1.8,0.83 -2.8,-2.73 -2.89,-3.88a6.8,6.8 0 0 1 1.17,-4.42c0.78,-1.1 2.63,-2.42 3.86,-1.13c0.82,0.86 0.61,2.08 1.73,2.8a0.91,0.91 0 0 0 1.32,-0.54c0.38,-2 0.89,-4.29 2.42,-5.78s3.55,-1.88 5.11,-0.47c2.82,2.54 2,7.31 -0.53,9.67c-1,0.9 0.44,2.26 1.44,1.44a6.2,6.2 0 0 1 3.16,-1.42c0.63,-0.08 0.7,0 0.71,0.63a8.24,8.24 0 0 1 -0.11,1.49a10.06,10.06 0 0 1 -2.47,5a10.18,10.18 0 0 1 -4.51,3a8.43,8.43 0 0 1 -2.78,0.4c-0.89,0 -2.65,-0.41 -2.46,-1.67s-1.5,-2.14 -2.06,-0.87a3.15,3.15 0 0 1 -3.69,1.79c-1.73,-0.41 -2.83,-1.94 -3.56,-3.44c-0.51,-1 -2.34,-0.31 -1.9,0.8a7.39,7.39 0 0 0 5.34,4.84a5.3,5.3 0 0 0 5.75,-2.85l-2.05,-0.87c-0.53,3.68 3.33,4.78 6.26,4.37a12.06,12.06 0 0 0 7.51,-4.28a11.39,11.39 0 0 0 2.82,-8.1c-0.41,-4 -5.57,-1.73 -7.4,-0.17l1.44,1.44c3.46,-3.25 4.09,-9.79 0,-12.87a5.46,5.46 0 0 0 -6.66,0.28c-2.28,1.72 -3.08,4.56 -3.53,7.25l1.32,-0.54c-0.41,-0.26 -0.49,-0.94 -0.67,-1.36a3.53,3.53 0 0 0 -0.71,-1.13a3.68,3.68 0 0 0 -2.58,-1c-2.2,0 -3.88,1.92 -4.67,3.8a8.31,8.31 0 0 0 0,6.4c0.72,1.69 2.52,3.72 4.49,2.52c0.68,-0.41 0.08,-1.37 -0.62,-1.05l0,-0.08z"/>
  <path id="svg_146" d="m324.68,710.87a4.54,4.54 0 0 0 -4.32,-4.14c-2.72,-0.23 -4.93,1.94 -5.94,4.27c-2.13,5 0.53,11 5.28,13.34a0.92,0.92 0 0 0 1.11,-1.44c-1.93,-2 -3.73,2.34 -3.86,3.72a6.16,6.16 0 0 0 3.57,6.17a7.52,7.52 0 0 0 7.47,-0.86a9.35,9.35 0 0 0 3.51,-7.68a1,1 0 0 0 -1.95,-0.27c-0.64,2.12 1.34,3.9 3.39,3.71c2.33,-0.21 4.28,-2.37 5.38,-4.28a11.16,11.16 0 0 0 1.39,-7c-0.27,-2 -1.37,-4.43 -3.62,-4.82s-2.84,2.33 -1.88,3.85c1.18,1.88 3.85,1.36 5.12,-0.12c1.61,-1.88 1.17,-4.85 0.43,-7a13.37,13.37 0 0 0 -4.2,-6.05c-2,-1.64 -4.9,-2.86 -7.38,-1.43c-2.24,1.3 -3,4.09 -3.39,6.46c-0.25,1.38 1.87,2 2.12,0.58a9.32,9.32 0 0 1 1.62,-4.52c1.4,-1.64 3.59,-0.91 5.11,0.14c2.71,1.86 5.38,6 4.56,9.44c-0.17,0.72 -1,2 -1.91,1.61c-0.46,-0.18 -0.85,-1.27 0,-0.66c1.38,1 1.52,3.17 1.41,4.68a9.16,9.16 0 0 1 -2.09,5.13a6.06,6.06 0 0 1 -2.14,1.76c-0.76,0.32 -2.41,0.26 -2.05,-1l-1.95,-0.26c0.06,3.71 -2.44,7.54 -6.52,7.21a4.4,4.4 0 0 1 -3.89,-2.75a4.53,4.53 0 0 1 -0.24,-2.28c0.07,-0.42 0.52,-2.16 1.16,-2.11l-0.65,-0.27l0.14,0.14l1.12,-1.44a9.15,9.15 0 0 1 -5.17,-9.29c0.26,-2.07 1.45,-4.34 3.51,-5.09c1.84,-0.67 4.32,0.4 4.51,2.5c0.07,0.76 1.24,0.78 1.2,0l0.04,0.05z"/>
  <path id="svg_147" d="m306.31,684.17a5.43,5.43 0 0 0 4.51,3.08a5.35,5.35 0 0 0 4.92,-2.7a0.66,0.66 0 0 0 -1.14,-0.67a4.32,4.32 0 0 1 -3.78,2.07a4.26,4.26 0 0 1 -3.54,-2.35c-0.33,-0.66 -1.27,-0.09 -1,0.57l0.03,0z"/>
  <path id="svg_148" d="m341.41,754.85a12.9,12.9 0 0 0 1.24,-2.72l0.59,-1.41a2.23,2.23 0 0 1 0.52,-0.91c0.46,-0.38 1.15,0 1.48,0.35a5,5 0 0 1 0.83,2.24a0.84,0.84 0 0 0 1.64,-0.23a2.2,2.2 0 0 1 3.71,-1.77c0.81,0.74 2,-0.43 1.21,-1.22a3.85,3.85 0 0 0 -6.59,3l1.65,-0.22a6.17,6.17 0 0 0 -1.36,-3a2.89,2.89 0 0 0 -2.74,-0.8c-1.11,0.32 -1.5,1.38 -1.89,2.35l-0.75,1.92a8.58,8.58 0 0 0 -0.67,1.94a0.62,0.62 0 0 0 1.13,0.47l0,0.01z"/>
  <path fill="#344729" id="svg_151" d="m323.51,405.17l50.27,0l0,75.99l-50.27,0l0,-75.99z"/>
  <path fill="#3c552d" id="svg_152" d="m319.37,395.36l58.55,0l0,13.49l-58.55,0l0,-13.49z"/>
  <path fill="#344729" id="svg_153" d="m489.03,347.14l50.27,0l0,134.03l-50.27,0l0,-134.03z"/>
  <path fill="#3c552d" id="svg_154" d="m484.89,337.33l58.55,0l0,13.49l-58.55,0l0,-13.49z"/>
  <path fill="#344729" id="svg_155" d="m654.55,429.74l50.27,0l0,49.95l-50.27,0l0,-49.95z"/>
  <path fill="#3c552d" id="svg_156" d="m650.41,419.93l58.55,0l0,13.49l-58.55,0l0,-13.49z"/>
  <path fill="#8b322c" id="svg_157" d="m404.58,319c-0.22,-4.69 -0.31,-9.46 0.8,-14s3.58,-9 7.53,-11.52a4.15,4.15 0 0 1 3.44,-0.81c1.59,0.54 2.15,2.54 2,4.22a10,10 0 0 1 -2.62,6a2.43,2.43 0 0 1 3.06,1.37a3.49,3.49 0 0 1 -0.65,3.49a6.41,6.41 0 0 1 -3.15,1.91c0.56,-0.09 1,0.49 1.19,1a6.6,6.6 0 0 1 -0.93,5.9a11.06,11.06 0 0 1 -4.87,3.71c-2.44,1 -5.42,1.41 -7.61,-0.08"/>
  <path fill="#8b322c" id="svg_158" d="m397.09,323.78c-1.95,0.15 -4,0.27 -5.67,-0.81s-2.17,-3.86 -0.51,-4.89a19,19 0 0 1 -4.68,-2.28a4.18,4.18 0 0 1 -1.72,-1.84c-0.7,-1.91 1.7,-3.88 3.66,-3.35a22.62,22.62 0 0 1 -6.6,-4.83c-1.24,-1.29 -2.37,-2.92 -2.21,-4.7c0.25,-2.75 3.4,-4.28 6.16,-4.42a16.71,16.71 0 0 1 12.11,4.85a26.68,26.68 0 0 1 6.71,11.49a11.24,11.24 0 0 1 0.52,6.32c-0.59,2.07 -2.52,3.88 -4.66,3.66"/>
  <path fill="#8b322c" id="svg_159" d="m395.23,326.55a33.79,33.79 0 0 1 27.12,-13.34l-4.35,3.23a3.92,3.92 0 0 0 -1.05,1a4.59,4.59 0 0 0 -0.38,2.27a11.2,11.2 0 0 1 -13.57,10.62a41.63,41.63 0 0 1 -5.17,-1.8a23.9,23.9 0 0 0 -15.27,-0.19c-1.47,0.48 -3,1.23 -3.62,2.65s0.55,3.49 2,3.15a1.91,1.91 0 1 0 2.47,2.9c-0.5,1.18 1,2.38 2.28,2.1a5.27,5.27 0 0 0 2.84,-2.44l5.76,-8.11"/>
  <path fill="#4793af" id="svg_161" d="m641.41,342.35c-0.22,-4.69 -0.32,-9.45 0.8,-14s3.57,-9 7.52,-11.51a4.12,4.12 0 0 1 3.44,-0.82c1.6,0.54 2.15,2.54 2,4.22a9.81,9.81 0 0 1 -2.62,6a2.47,2.47 0 0 1 3.07,1.37a3.52,3.52 0 0 1 -0.66,3.49a6.33,6.33 0 0 1 -3.14,1.92c0.55,-0.09 1,0.49 1.18,1a6.58,6.58 0 0 1 -0.93,5.89a11,11 0 0 1 -4.87,3.72c-2.44,1 -5.42,1.4 -7.6,-0.08"/>
  <path fill="#4793af" id="svg_162" d="m633.91,347.09c-1.94,0.16 -4,0.27 -5.67,-0.81s-2.16,-3.86 -0.51,-4.88a19.54,19.54 0 0 1 -4.68,-2.29a4.05,4.05 0 0 1 -1.71,-1.84c-0.7,-1.91 1.69,-3.87 3.65,-3.34a22.93,22.93 0 0 1 -6.6,-4.83c-1.23,-1.3 -2.37,-2.93 -2.21,-4.71c0.25,-2.75 3.41,-4.28 6.16,-4.42a16.73,16.73 0 0 1 12.11,4.85a26.58,26.58 0 0 1 6.71,11.44a11.24,11.24 0 0 1 0.52,6.32c-0.59,2.07 -2.52,3.89 -4.66,3.67"/>
  <path fill="#4793af" id="svg_163" d="m632.06,349.86a33.76,33.76 0 0 1 27.12,-13.34l-4.36,3.24a3.92,3.92 0 0 0 -1.05,1a4.66,4.66 0 0 0 -0.38,2.27a11.2,11.2 0 0 1 -13.54,10.6a43.38,43.38 0 0 1 -5.17,-1.81a23.9,23.9 0 0 0 -15.27,-0.19c-1.47,0.48 -3,1.23 -3.62,2.66s0.55,3.49 2.06,3.15a1.91,1.91 0 1 0 2.46,2.9c-0.5,1.17 1,2.38 2.29,2.1a5.33,5.33 0 0 0 2.83,-2.44l5.77,-8.12"/>
  <path id="svg_164" d="m307.98,257.29l13.38,0l0,13.38l-13.38,0l0,-13.38z"/>
  <path id="svg_165" d="m323.28,257.29l13.38,0l0,13.38l-13.38,0l0,-13.38z"/>
  <path id="svg_166" d="m338.59,257.29l13.38,0l0,13.38l-13.38,0l0,-13.38z"/>
  <path id="svg_167" d="m353.89,257.29l13.38,0l0,13.38l-13.38,0l0,-13.38z"/>
  <path id="svg_168" d="m369.2,257.29l13.38,0l0,13.38l-13.38,0l0,-13.38z"/>
  <path id="svg_169" d="m384.5,257.29l13.38,0l0,13.38l-13.38,0l0,-13.38z"/>
  <path id="svg_170" d="m484.89,289.95l13.38,0l0,13.38l-13.38,0l0,-13.38z"/>
  <path id="svg_171" d="m500.19,289.95l13.38,0l0,13.38l-13.38,0l0,-13.38z"/>
  <path id="svg_172" d="m515.5,289.95l13.38,0l0,13.38l-13.38,0l0,-13.38z"/>
  <path id="svg_173" d="m530.8,289.95l13.38,0l0,13.38l-13.38,0l0,-13.38z"/>
  <path id="svg_174" d="m546.11,289.95l13.38,0l0,13.38l-13.38,0l0,-13.38z"/>
  <path id="svg_175" d="m561.41,289.95l13.38,0l0,13.38l-13.38,0l0,-13.38z"/>
  <path id="svg_176" d="m619.06,379.13l13.38,0l0,13.38l-13.38,0l0,-13.38z"/>
  <path id="svg_177" d="m634.36,379.13l13.38,0l0,13.38l-13.38,0l0,-13.38z"/>
  <path id="svg_178" d="m649.67,379.13l13.38,0l0,13.38l-13.38,0l0,-13.38z"/>
  <path id="svg_179" d="m664.97,379.13l13.38,0l0,13.38l-13.38,0l0,-13.38z"/>
  <path id="svg_180" d="m680.28,379.13l13.38,0l0,13.38l-13.38,0l0,-13.38z"/>
  <path id="svg_181" d="m695.58,379.13l13.38,0l0,13.38l-13.38,0l0,-13.38z"/>
  <path id="svg_187" d="m795.257702,518.448474l1.578987,6.811115l20.26302,-6.527303l-2.105249,-7.946282c0.263105,0.283781 -2.894769,1.135168 -2.894769,1.135168" fill-opacity="null" stroke-opacity="null" stroke-width="null" stroke="null" fill="#fff"/>
 </g>
</svg>